<?xml version="1.0" encoding="utf-8"?>
<!-- Generator: Adobe Illustrator 25.1.0, SVG Export Plug-In . SVG Version: 6.00 Build 0)  -->
<svg version="1.1" xmlns="http://www.w3.org/2000/svg" xmlns:xlink="http://www.w3.org/1999/xlink" x="0px" y="0px"
	 viewBox="0 0 120 120" style="enable-background:new 0 0 120 120;" xml:space="preserve">
<title>Arrow Circle Down</title>
<metadata><?xpacket begin="﻿" id="W5M0MpCehiHzreSzNTczkc9d"?>
<x:xmpmeta xmlns:x="adobe:ns:meta/" x:xmptk="Adobe XMP Core 6.0-c002 79.164488, 2020/07/10-22:06:53        ">
   <rdf:RDF xmlns:rdf="http://www.w3.org/1999/02/22-rdf-syntax-ns#">
      <rdf:Description rdf:about=""
            xmlns:xmp="http://ns.adobe.com/xap/1.0/"
            xmlns:xmpMM="http://ns.adobe.com/xap/1.0/mm/"
            xmlns:stEvt="http://ns.adobe.com/xap/1.0/sType/ResourceEvent#"
            xmlns:lr="http://ns.adobe.com/lightroom/1.0/"
            xmlns:dc="http://purl.org/dc/elements/1.1/">
         <xmp:MetadataDate>2021-02-15T15:48:36-06:00</xmp:MetadataDate>
         <xmpMM:InstanceID>xmp.iid:1e1a5ee7-4b7e-4c5b-8f36-925dd495b24d</xmpMM:InstanceID>
         <xmpMM:DocumentID>xmp.did:a5272db2-4119-489b-b9c5-841ed7762108</xmpMM:DocumentID>
         <xmpMM:OriginalDocumentID>xmp.did:a5272db2-4119-489b-b9c5-841ed7762108</xmpMM:OriginalDocumentID>
         <xmpMM:History>
            <rdf:Seq>
               <rdf:li>
                  <rdf:Description>
                     <stEvt:action>saved</stEvt:action>
                     <stEvt:instanceID>xmp.iid:a5272db2-4119-489b-b9c5-841ed7762108</stEvt:instanceID>
                     <stEvt:when>2021-02-15T14:51:01-06:00</stEvt:when>
                     <stEvt:softwareAgent>Adobe Bridge 2021 (Macintosh)</stEvt:softwareAgent>
                     <stEvt:changed>/metadata</stEvt:changed>
                  </rdf:Description>
               </rdf:li>
               <rdf:li>
                  <rdf:Description>
                     <stEvt:action>saved</stEvt:action>
                     <stEvt:instanceID>xmp.iid:1e1a5ee7-4b7e-4c5b-8f36-925dd495b24d</stEvt:instanceID>
                     <stEvt:when>2021-02-15T15:48:36-06:00</stEvt:when>
                     <stEvt:softwareAgent>Adobe Bridge 2021 (Macintosh)</stEvt:softwareAgent>
                     <stEvt:changed>/metadata</stEvt:changed>
                  </rdf:Description>
               </rdf:li>
            </rdf:Seq>
         </xmpMM:History>
         <lr:hierarchicalSubject>
            <rdf:Bag>
               <rdf:li>Category names|Business</rdf:li>
               <rdf:li>Color[JW2]|2-Color</rdf:li>
               <rdf:li>Color[JW2]|Light Background</rdf:li>
               <rdf:li>General[JW1]|Arrow</rdf:li>
               <rdf:li>General[JW1]|Circle</rdf:li>
            </rdf:Bag>
         </lr:hierarchicalSubject>
         <dc:subject>
            <rdf:Bag>
               <rdf:li>Business</rdf:li>
               <rdf:li>Icon</rdf:li>
               <rdf:li>2-Color</rdf:li>
               <rdf:li>Light Background</rdf:li>
               <rdf:li>Arrow</rdf:li>
               <rdf:li>Circle</rdf:li>
            </rdf:Bag>
         </dc:subject>
         <dc:title>
            <rdf:Alt>
               <rdf:li xml:lang="x-default">Arrow Circle Down</rdf:li>
            </rdf:Alt>
         </dc:title>
      </rdf:Description>
   </rdf:RDF>
</x:xmpmeta>
                                                                                                    
                                                                                                    
                                                                                                    
                                                                                                    
                                                                                                    
                                                                                                    
                                                                                                    
                                                                                                    
                                                                                                    
                                                       
<?xpacket end="w"?></metadata>
<style type="text/css">
	.st0{display:none;}
	.st1{display:inline;}
	.st2{fill:#FFFFFF;stroke:#EC008C;stroke-width:0.1;stroke-miterlimit:10;}
	.st3{fill:#1D428A;}
	.st4{fill:#0091DA;}
</style>
<g id="_x39_5x95_Grids" class="st0">
	<g class="st1">
		<rect x="12" y="12.2" class="st2" width="5" height="5"/>
		<rect x="17" y="12.2" class="st2" width="5" height="5"/>
		<rect x="22" y="12.2" class="st2" width="5" height="5"/>
		<rect x="27" y="12.2" class="st2" width="5" height="5"/>
		<rect x="32" y="12.2" class="st2" width="5" height="5"/>
		<rect x="37" y="12.2" class="st2" width="5" height="5"/>
		<rect x="42" y="12.2" class="st2" width="5" height="5"/>
		<rect x="47" y="12.2" class="st2" width="5" height="5"/>
		<rect x="52" y="12.2" class="st2" width="5" height="5"/>
		<rect x="57" y="12.2" class="st2" width="5" height="5"/>
		<rect x="62" y="12.2" class="st2" width="5" height="5"/>
		<rect x="67" y="12.2" class="st2" width="5" height="5"/>
		<rect x="72" y="12.2" class="st2" width="5" height="5"/>
		<rect x="77" y="12.2" class="st2" width="5" height="5"/>
		<rect x="82" y="12.2" class="st2" width="5" height="5"/>
		<rect x="87" y="12.2" class="st2" width="5" height="5"/>
		<rect x="92" y="12.2" class="st2" width="5" height="5"/>
		<rect x="97" y="12.2" class="st2" width="5" height="5"/>
		<rect x="102" y="12.2" class="st2" width="5" height="5"/>
		<rect x="12" y="17.2" class="st2" width="5" height="5"/>
		<rect x="17" y="17.2" class="st2" width="5" height="5"/>
		<rect x="22" y="17.2" class="st2" width="5" height="5"/>
		<rect x="27" y="17.2" class="st2" width="5" height="5"/>
		<rect x="32" y="17.2" class="st2" width="5" height="5"/>
		<rect x="37" y="17.2" class="st2" width="5" height="5"/>
		<rect x="42" y="17.2" class="st2" width="5" height="5"/>
		<rect x="47" y="17.2" class="st2" width="5" height="5"/>
		<rect x="52" y="17.2" class="st2" width="5" height="5"/>
		<rect x="57" y="17.2" class="st2" width="5" height="5"/>
		<rect x="62" y="17.2" class="st2" width="5" height="5"/>
		<rect x="67" y="17.2" class="st2" width="5" height="5"/>
		<rect x="72" y="17.2" class="st2" width="5" height="5"/>
		<rect x="77" y="17.2" class="st2" width="5" height="5"/>
		<rect x="82" y="17.2" class="st2" width="5" height="5"/>
		<rect x="87" y="17.2" class="st2" width="5" height="5"/>
		<rect x="92" y="17.2" class="st2" width="5" height="5"/>
		<rect x="97" y="17.2" class="st2" width="5" height="5"/>
		<rect x="102" y="17.2" class="st2" width="5" height="5"/>
		<rect x="12" y="22.2" class="st2" width="5" height="5"/>
		<rect x="17" y="22.2" class="st2" width="5" height="5"/>
		<rect x="22" y="22.2" class="st2" width="5" height="5"/>
		<rect x="27" y="22.2" class="st2" width="5" height="5"/>
		<rect x="32" y="22.2" class="st2" width="5" height="5"/>
		<rect x="37" y="22.2" class="st2" width="5" height="5"/>
		<rect x="42" y="22.2" class="st2" width="5" height="5"/>
		<rect x="47" y="22.2" class="st2" width="5" height="5"/>
		<rect x="52" y="22.2" class="st2" width="5" height="5"/>
		<rect x="57" y="22.2" class="st2" width="5" height="5"/>
		<rect x="62" y="22.2" class="st2" width="5" height="5"/>
		<rect x="67" y="22.2" class="st2" width="5" height="5"/>
		<rect x="72" y="22.2" class="st2" width="5" height="5"/>
		<rect x="77" y="22.2" class="st2" width="5" height="5"/>
		<rect x="82" y="22.2" class="st2" width="5" height="5"/>
		<rect x="87" y="22.2" class="st2" width="5" height="5"/>
		<rect x="92" y="22.2" class="st2" width="5" height="5"/>
		<rect x="97" y="22.2" class="st2" width="5" height="5"/>
		<rect x="102" y="22.2" class="st2" width="5" height="5"/>
		<rect x="12" y="27.2" class="st2" width="5" height="5"/>
		<rect x="17" y="27.2" class="st2" width="5" height="5"/>
		<rect x="22" y="27.2" class="st2" width="5" height="5"/>
		<rect x="27" y="27.2" class="st2" width="5" height="5"/>
		<rect x="32" y="27.2" class="st2" width="5" height="5"/>
		<rect x="37" y="27.2" class="st2" width="5" height="5"/>
		<rect x="42" y="27.2" class="st2" width="5" height="5"/>
		<rect x="47" y="27.2" class="st2" width="5" height="5"/>
		<rect x="52" y="27.2" class="st2" width="5" height="5"/>
		<rect x="57" y="27.2" class="st2" width="5" height="5"/>
		<rect x="62" y="27.2" class="st2" width="5" height="5"/>
		<rect x="67" y="27.2" class="st2" width="5" height="5"/>
		<rect x="72" y="27.2" class="st2" width="5" height="5"/>
		<rect x="77" y="27.2" class="st2" width="5" height="5"/>
		<rect x="82" y="27.2" class="st2" width="5" height="5"/>
		<rect x="87" y="27.2" class="st2" width="5" height="5"/>
		<rect x="92" y="27.2" class="st2" width="5" height="5"/>
		<rect x="97" y="27.2" class="st2" width="5" height="5"/>
		<rect x="102" y="27.2" class="st2" width="5" height="5"/>
		<rect x="12" y="32.2" class="st2" width="5" height="5"/>
		<rect x="17" y="32.2" class="st2" width="5" height="5"/>
		<rect x="22" y="32.2" class="st2" width="5" height="5"/>
		<rect x="27" y="32.2" class="st2" width="5" height="5"/>
		<rect x="32" y="32.2" class="st2" width="5" height="5"/>
		<rect x="37" y="32.2" class="st2" width="5" height="5"/>
		<rect x="42" y="32.2" class="st2" width="5" height="5"/>
		<rect x="47" y="32.2" class="st2" width="5" height="5"/>
		<rect x="52" y="32.2" class="st2" width="5" height="5"/>
		<rect x="57" y="32.2" class="st2" width="5" height="5"/>
		<rect x="62" y="32.2" class="st2" width="5" height="5"/>
		<rect x="67" y="32.2" class="st2" width="5" height="5"/>
		<rect x="72" y="32.2" class="st2" width="5" height="5"/>
		<rect x="77" y="32.2" class="st2" width="5" height="5"/>
		<rect x="82" y="32.2" class="st2" width="5" height="5"/>
		<rect x="87" y="32.2" class="st2" width="5" height="5"/>
		<rect x="92" y="32.2" class="st2" width="5" height="5"/>
		<rect x="97" y="32.2" class="st2" width="5" height="5"/>
		<rect x="102" y="32.2" class="st2" width="5" height="5"/>
		<rect x="12" y="37.2" class="st2" width="5" height="5"/>
		<rect x="17" y="37.2" class="st2" width="5" height="5"/>
		<rect x="22" y="37.2" class="st2" width="5" height="5"/>
		<rect x="27" y="37.2" class="st2" width="5" height="5"/>
		<rect x="32" y="37.2" class="st2" width="5" height="5"/>
		<rect x="37" y="37.2" class="st2" width="5" height="5"/>
		<rect x="42" y="37.2" class="st2" width="5" height="5"/>
		<rect x="47" y="37.2" class="st2" width="5" height="5"/>
		<rect x="52" y="37.2" class="st2" width="5" height="5"/>
		<rect x="57" y="37.2" class="st2" width="5" height="5"/>
		<rect x="62" y="37.2" class="st2" width="5" height="5"/>
		<rect x="67" y="37.2" class="st2" width="5" height="5"/>
		<rect x="72" y="37.2" class="st2" width="5" height="5"/>
		<rect x="77" y="37.2" class="st2" width="5" height="5"/>
		<rect x="82" y="37.2" class="st2" width="5" height="5"/>
		<rect x="87" y="37.2" class="st2" width="5" height="5"/>
		<rect x="92" y="37.2" class="st2" width="5" height="5"/>
		<rect x="97" y="37.2" class="st2" width="5" height="5"/>
		<rect x="102" y="37.2" class="st2" width="5" height="5"/>
		<rect x="12" y="42.2" class="st2" width="5" height="5"/>
		<rect x="17" y="42.2" class="st2" width="5" height="5"/>
		<rect x="22" y="42.2" class="st2" width="5" height="5"/>
		<rect x="27" y="42.2" class="st2" width="5" height="5"/>
		<rect x="32" y="42.2" class="st2" width="5" height="5"/>
		<rect x="37" y="42.2" class="st2" width="5" height="5"/>
		<rect x="42" y="42.2" class="st2" width="5" height="5"/>
		<rect x="47" y="42.2" class="st2" width="5" height="5"/>
		<rect x="52" y="42.2" class="st2" width="5" height="5"/>
		<rect x="57" y="42.2" class="st2" width="5" height="5"/>
		<rect x="62" y="42.2" class="st2" width="5" height="5"/>
		<rect x="67" y="42.2" class="st2" width="5" height="5"/>
		<rect x="72" y="42.2" class="st2" width="5" height="5"/>
		<rect x="77" y="42.2" class="st2" width="5" height="5"/>
		<rect x="82" y="42.2" class="st2" width="5" height="5"/>
		<rect x="87" y="42.2" class="st2" width="5" height="5"/>
		<rect x="92" y="42.2" class="st2" width="5" height="5"/>
		<rect x="97" y="42.2" class="st2" width="5" height="5"/>
		<rect x="102" y="42.2" class="st2" width="5" height="5"/>
		<rect x="12" y="47.2" class="st2" width="5" height="5"/>
		<rect x="17" y="47.2" class="st2" width="5" height="5"/>
		<rect x="22" y="47.2" class="st2" width="5" height="5"/>
		<rect x="27" y="47.2" class="st2" width="5" height="5"/>
		<rect x="32" y="47.2" class="st2" width="5" height="5"/>
		<rect x="37" y="47.2" class="st2" width="5" height="5"/>
		<rect x="42" y="47.2" class="st2" width="5" height="5"/>
		<rect x="47" y="47.2" class="st2" width="5" height="5"/>
		<rect x="52" y="47.2" class="st2" width="5" height="5"/>
		<rect x="57" y="47.2" class="st2" width="5" height="5"/>
		<rect x="62" y="47.2" class="st2" width="5" height="5"/>
		<rect x="67" y="47.2" class="st2" width="5" height="5"/>
		<rect x="72" y="47.2" class="st2" width="5" height="5"/>
		<rect x="77" y="47.2" class="st2" width="5" height="5"/>
		<rect x="82" y="47.2" class="st2" width="5" height="5"/>
		<rect x="87" y="47.2" class="st2" width="5" height="5"/>
		<rect x="92" y="47.2" class="st2" width="5" height="5"/>
		<rect x="97" y="47.2" class="st2" width="5" height="5"/>
		<rect x="102" y="47.2" class="st2" width="5" height="5"/>
		<rect x="12" y="52.2" class="st2" width="5" height="5"/>
		<rect x="17" y="52.2" class="st2" width="5" height="5"/>
		<rect x="22" y="52.2" class="st2" width="5" height="5"/>
		<rect x="27" y="52.2" class="st2" width="5" height="5"/>
		<rect x="32" y="52.2" class="st2" width="5" height="5"/>
		<rect x="37" y="52.2" class="st2" width="5" height="5"/>
		<rect x="42" y="52.2" class="st2" width="5" height="5"/>
		<rect x="47" y="52.2" class="st2" width="5" height="5"/>
		<rect x="52" y="52.2" class="st2" width="5" height="5"/>
		<rect x="57" y="52.2" class="st2" width="5" height="5"/>
		<rect x="62" y="52.2" class="st2" width="5" height="5"/>
		<rect x="67" y="52.2" class="st2" width="5" height="5"/>
		<rect x="72" y="52.2" class="st2" width="5" height="5"/>
		<rect x="77" y="52.2" class="st2" width="5" height="5"/>
		<rect x="82" y="52.2" class="st2" width="5" height="5"/>
		<rect x="87" y="52.2" class="st2" width="5" height="5"/>
		<rect x="92" y="52.2" class="st2" width="5" height="5"/>
		<rect x="97" y="52.2" class="st2" width="5" height="5"/>
		<rect x="102" y="52.2" class="st2" width="5" height="5"/>
		<rect x="12" y="57.2" class="st2" width="5" height="5"/>
		<rect x="17" y="57.2" class="st2" width="5" height="5"/>
		<rect x="22" y="57.2" class="st2" width="5" height="5"/>
		<rect x="27" y="57.2" class="st2" width="5" height="5"/>
		<rect x="32" y="57.2" class="st2" width="5" height="5"/>
		<rect x="37" y="57.2" class="st2" width="5" height="5"/>
		<rect x="42" y="57.2" class="st2" width="5" height="5"/>
		<rect x="47" y="57.2" class="st2" width="5" height="5"/>
		<rect x="52" y="57.2" class="st2" width="5" height="5"/>
		<rect x="57" y="57.2" class="st2" width="5" height="5"/>
		<rect x="62" y="57.2" class="st2" width="5" height="5"/>
		<rect x="67" y="57.2" class="st2" width="5" height="5"/>
		<rect x="72" y="57.2" class="st2" width="5" height="5"/>
		<rect x="77" y="57.2" class="st2" width="5" height="5"/>
		<rect x="82" y="57.2" class="st2" width="5" height="5"/>
		<rect x="87" y="57.2" class="st2" width="5" height="5"/>
		<rect x="92" y="57.2" class="st2" width="5" height="5"/>
		<rect x="97" y="57.2" class="st2" width="5" height="5"/>
		<rect x="102" y="57.2" class="st2" width="5" height="5"/>
		<rect x="12" y="62.2" class="st2" width="5" height="5"/>
		<rect x="17" y="62.2" class="st2" width="5" height="5"/>
		<rect x="22" y="62.2" class="st2" width="5" height="5"/>
		<rect x="27" y="62.2" class="st2" width="5" height="5"/>
		<rect x="32" y="62.2" class="st2" width="5" height="5"/>
		<rect x="37" y="62.2" class="st2" width="5" height="5"/>
		<rect x="42" y="62.2" class="st2" width="5" height="5"/>
		<rect x="47" y="62.2" class="st2" width="5" height="5"/>
		<rect x="52" y="62.2" class="st2" width="5" height="5"/>
		<rect x="57" y="62.2" class="st2" width="5" height="5"/>
		<rect x="62" y="62.2" class="st2" width="5" height="5"/>
		<rect x="67" y="62.2" class="st2" width="5" height="5"/>
		<rect x="72" y="62.2" class="st2" width="5" height="5"/>
		<rect x="77" y="62.2" class="st2" width="5" height="5"/>
		<rect x="82" y="62.2" class="st2" width="5" height="5"/>
		<rect x="87" y="62.2" class="st2" width="5" height="5"/>
		<rect x="92" y="62.2" class="st2" width="5" height="5"/>
		<rect x="97" y="62.2" class="st2" width="5" height="5"/>
		<rect x="102" y="62.2" class="st2" width="5" height="5"/>
		<rect x="12" y="67.2" class="st2" width="5" height="5"/>
		<rect x="17" y="67.2" class="st2" width="5" height="5"/>
		<rect x="22" y="67.2" class="st2" width="5" height="5"/>
		<rect x="27" y="67.2" class="st2" width="5" height="5"/>
		<rect x="32" y="67.2" class="st2" width="5" height="5"/>
		<rect x="37" y="67.2" class="st2" width="5" height="5"/>
		<rect x="42" y="67.2" class="st2" width="5" height="5"/>
		<rect x="47" y="67.2" class="st2" width="5" height="5"/>
		<rect x="52" y="67.2" class="st2" width="5" height="5"/>
		<rect x="57" y="67.2" class="st2" width="5" height="5"/>
		<rect x="62" y="67.2" class="st2" width="5" height="5"/>
		<rect x="67" y="67.2" class="st2" width="5" height="5"/>
		<rect x="72" y="67.2" class="st2" width="5" height="5"/>
		<rect x="77" y="67.2" class="st2" width="5" height="5"/>
		<rect x="82" y="67.2" class="st2" width="5" height="5"/>
		<rect x="87" y="67.2" class="st2" width="5" height="5"/>
		<rect x="92" y="67.2" class="st2" width="5" height="5"/>
		<rect x="97" y="67.2" class="st2" width="5" height="5"/>
		<rect x="102" y="67.2" class="st2" width="5" height="5"/>
		<rect x="12" y="72.2" class="st2" width="5" height="5"/>
		<rect x="17" y="72.2" class="st2" width="5" height="5"/>
		<rect x="22" y="72.2" class="st2" width="5" height="5"/>
		<rect x="27" y="72.2" class="st2" width="5" height="5"/>
		<rect x="32" y="72.2" class="st2" width="5" height="5"/>
		<rect x="37" y="72.2" class="st2" width="5" height="5"/>
		<rect x="42" y="72.2" class="st2" width="5" height="5"/>
		<rect x="47" y="72.2" class="st2" width="5" height="5"/>
		<rect x="52" y="72.2" class="st2" width="5" height="5"/>
		<rect x="57" y="72.2" class="st2" width="5" height="5"/>
		<rect x="62" y="72.2" class="st2" width="5" height="5"/>
		<rect x="67" y="72.2" class="st2" width="5" height="5"/>
		<rect x="72" y="72.2" class="st2" width="5" height="5"/>
		<rect x="77" y="72.2" class="st2" width="5" height="5"/>
		<rect x="82" y="72.2" class="st2" width="5" height="5"/>
		<rect x="87" y="72.2" class="st2" width="5" height="5"/>
		<rect x="92" y="72.2" class="st2" width="5" height="5"/>
		<rect x="97" y="72.2" class="st2" width="5" height="5"/>
		<rect x="102" y="72.2" class="st2" width="5" height="5"/>
		<rect x="12" y="77.2" class="st2" width="5" height="5"/>
		<rect x="17" y="77.2" class="st2" width="5" height="5"/>
		<rect x="22" y="77.2" class="st2" width="5" height="5"/>
		<rect x="27" y="77.2" class="st2" width="5" height="5"/>
		<rect x="32" y="77.2" class="st2" width="5" height="5"/>
		<rect x="37" y="77.2" class="st2" width="5" height="5"/>
		<rect x="42" y="77.2" class="st2" width="5" height="5"/>
		<rect x="47" y="77.2" class="st2" width="5" height="5"/>
		<rect x="52" y="77.2" class="st2" width="5" height="5"/>
		<rect x="57" y="77.2" class="st2" width="5" height="5"/>
		<rect x="62" y="77.2" class="st2" width="5" height="5"/>
		<rect x="67" y="77.2" class="st2" width="5" height="5"/>
		<rect x="72" y="77.2" class="st2" width="5" height="5"/>
		<rect x="77" y="77.2" class="st2" width="5" height="5"/>
		<rect x="82" y="77.2" class="st2" width="5" height="5"/>
		<rect x="87" y="77.2" class="st2" width="5" height="5"/>
		<rect x="92" y="77.2" class="st2" width="5" height="5"/>
		<rect x="97" y="77.2" class="st2" width="5" height="5"/>
		<rect x="102" y="77.2" class="st2" width="5" height="5"/>
		<rect x="12" y="82.2" class="st2" width="5" height="5"/>
		<rect x="17" y="82.2" class="st2" width="5" height="5"/>
		<rect x="22" y="82.2" class="st2" width="5" height="5"/>
		<rect x="27" y="82.2" class="st2" width="5" height="5"/>
		<rect x="32" y="82.2" class="st2" width="5" height="5"/>
		<rect x="37" y="82.2" class="st2" width="5" height="5"/>
		<rect x="42" y="82.2" class="st2" width="5" height="5"/>
		<rect x="47" y="82.2" class="st2" width="5" height="5"/>
		<rect x="52" y="82.2" class="st2" width="5" height="5"/>
		<rect x="57" y="82.2" class="st2" width="5" height="5"/>
		<rect x="62" y="82.2" class="st2" width="5" height="5"/>
		<rect x="67" y="82.2" class="st2" width="5" height="5"/>
		<rect x="72" y="82.2" class="st2" width="5" height="5"/>
		<rect x="77" y="82.2" class="st2" width="5" height="5"/>
		<rect x="82" y="82.2" class="st2" width="5" height="5"/>
		<rect x="87" y="82.2" class="st2" width="5" height="5"/>
		<rect x="92" y="82.2" class="st2" width="5" height="5"/>
		<rect x="97" y="82.2" class="st2" width="5" height="5"/>
		<rect x="102" y="82.2" class="st2" width="5" height="5"/>
		<rect x="12" y="87.2" class="st2" width="5" height="5"/>
		<rect x="17" y="87.2" class="st2" width="5" height="5"/>
		<rect x="22" y="87.2" class="st2" width="5" height="5"/>
		<rect x="27" y="87.2" class="st2" width="5" height="5"/>
		<rect x="32" y="87.2" class="st2" width="5" height="5"/>
		<rect x="37" y="87.2" class="st2" width="5" height="5"/>
		<rect x="42" y="87.2" class="st2" width="5" height="5"/>
		<rect x="47" y="87.2" class="st2" width="5" height="5"/>
		<rect x="52" y="87.2" class="st2" width="5" height="5"/>
		<rect x="57" y="87.2" class="st2" width="5" height="5"/>
		<rect x="62" y="87.2" class="st2" width="5" height="5"/>
		<rect x="67" y="87.2" class="st2" width="5" height="5"/>
		<rect x="72" y="87.2" class="st2" width="5" height="5"/>
		<rect x="77" y="87.2" class="st2" width="5" height="5"/>
		<rect x="82" y="87.2" class="st2" width="5" height="5"/>
		<rect x="87" y="87.2" class="st2" width="5" height="5"/>
		<rect x="92" y="87.2" class="st2" width="5" height="5"/>
		<rect x="97" y="87.2" class="st2" width="5" height="5"/>
		<rect x="102" y="87.2" class="st2" width="5" height="5"/>
		<rect x="12" y="92.2" class="st2" width="5" height="5"/>
		<rect x="17" y="92.2" class="st2" width="5" height="5"/>
		<rect x="22" y="92.2" class="st2" width="5" height="5"/>
		<rect x="27" y="92.2" class="st2" width="5" height="5"/>
		<rect x="32" y="92.2" class="st2" width="5" height="5"/>
		<rect x="37" y="92.2" class="st2" width="5" height="5"/>
		<rect x="42" y="92.2" class="st2" width="5" height="5"/>
		<rect x="47" y="92.2" class="st2" width="5" height="5"/>
		<rect x="52" y="92.2" class="st2" width="5" height="5"/>
		<rect x="57" y="92.2" class="st2" width="5" height="5"/>
		<rect x="62" y="92.2" class="st2" width="5" height="5"/>
		<rect x="67" y="92.2" class="st2" width="5" height="5"/>
		<rect x="72" y="92.2" class="st2" width="5" height="5"/>
		<rect x="77" y="92.2" class="st2" width="5" height="5"/>
		<rect x="82" y="92.2" class="st2" width="5" height="5"/>
		<rect x="87" y="92.2" class="st2" width="5" height="5"/>
		<rect x="92" y="92.2" class="st2" width="5" height="5"/>
		<rect x="97" y="92.2" class="st2" width="5" height="5"/>
		<rect x="102" y="92.2" class="st2" width="5" height="5"/>
		<rect x="12" y="97.2" class="st2" width="5" height="5"/>
		<rect x="17" y="97.2" class="st2" width="5" height="5"/>
		<rect x="22" y="97.2" class="st2" width="5" height="5"/>
		<rect x="27" y="97.2" class="st2" width="5" height="5"/>
		<rect x="32" y="97.2" class="st2" width="5" height="5"/>
		<rect x="37" y="97.2" class="st2" width="5" height="5"/>
		<rect x="42" y="97.2" class="st2" width="5" height="5"/>
		<rect x="47" y="97.2" class="st2" width="5" height="5"/>
		<rect x="52" y="97.2" class="st2" width="5" height="5"/>
		<rect x="57" y="97.2" class="st2" width="5" height="5"/>
		<rect x="62" y="97.2" class="st2" width="5" height="5"/>
		<rect x="67" y="97.2" class="st2" width="5" height="5"/>
		<rect x="72" y="97.2" class="st2" width="5" height="5"/>
		<rect x="77" y="97.2" class="st2" width="5" height="5"/>
		<rect x="82" y="97.2" class="st2" width="5" height="5"/>
		<rect x="87" y="97.2" class="st2" width="5" height="5"/>
		<rect x="92" y="97.2" class="st2" width="5" height="5"/>
		<rect x="97" y="97.2" class="st2" width="5" height="5"/>
		<rect x="102" y="97.2" class="st2" width="5" height="5"/>
		<rect x="12" y="102.2" class="st2" width="5" height="5"/>
		<rect x="17" y="102.2" class="st2" width="5" height="5"/>
		<rect x="22" y="102.2" class="st2" width="5" height="5"/>
		<rect x="27" y="102.2" class="st2" width="5" height="5"/>
		<rect x="32" y="102.2" class="st2" width="5" height="5"/>
		<rect x="37" y="102.2" class="st2" width="5" height="5"/>
		<rect x="42" y="102.2" class="st2" width="5" height="5"/>
		<rect x="47" y="102.2" class="st2" width="5" height="5"/>
		<rect x="52" y="102.2" class="st2" width="5" height="5"/>
		<rect x="57" y="102.2" class="st2" width="5" height="5"/>
		<rect x="62" y="102.2" class="st2" width="5" height="5"/>
		<rect x="67" y="102.2" class="st2" width="5" height="5"/>
		<rect x="72" y="102.2" class="st2" width="5" height="5"/>
		<rect x="77" y="102.2" class="st2" width="5" height="5"/>
		<rect x="82" y="102.2" class="st2" width="5" height="5"/>
		<rect x="87" y="102.2" class="st2" width="5" height="5"/>
		<rect x="92" y="102.2" class="st2" width="5" height="5"/>
		<rect x="97" y="102.2" class="st2" width="5" height="5"/>
		<rect x="102" y="102.2" class="st2" width="5" height="5"/>
	</g>
</g>
<g id="Business_2color-light_bk">
	<g id="Arrow_Circle_Down_1_">
		<path class="st3" d="M59.7,12.2c-26.2,0-47.5,21.3-47.5,47.5s21.3,47.5,47.5,47.5c26.2,0,47.5-21.3,47.5-47.5S85.9,12.2,59.7,12.2
			z M59.7,104.7c-24.8,0-45-20.2-45-45c0-24.8,20.2-45,45-45c24.8,0,45,20.2,45,45C104.7,84.5,84.5,104.7,59.7,104.7z"/>
		<path class="st4" d="M79.1,58.2L67,58.3l0.2-17.7c0-0.3-0.1-0.7-0.4-0.9c-0.2-0.2-0.6-0.4-0.9-0.4H53.7c-0.7,0-1.2,0.6-1.2,1.2
			l-0.2,17.7l-12.1,0.1c-0.5,0-0.9,0.3-1.1,0.7c-0.2,0.4-0.2,0.9,0.1,1.3l19.2,25.1c0.2,0.3,0.6,0.5,1,0.5c0,0,0,0,0,0
			c0.4,0,0.8-0.2,1-0.5l19.6-25.3c0.3-0.4,0.3-0.9,0.1-1.3C80,58.5,79.6,58.2,79.1,58.2z M59.5,82.7L42.8,60.9l10.8,0
			c0.7,0,1.2-0.6,1.2-1.2L55,41.9h9.7l-0.2,17.7c0,0.3,0.1,0.7,0.4,0.9c0.2,0.2,0.6,0.4,0.9,0.4c0,0,0,0,0,0l10.8,0L59.5,82.7z"/>
	</g>
</g>
</svg>
