<?xml version="1.0" encoding="utf-8"?>
<!-- Generator: Adobe Illustrator 25.1.0, SVG Export Plug-In . SVG Version: 6.00 Build 0)  -->
<svg version="1.1" xmlns="http://www.w3.org/2000/svg" xmlns:xlink="http://www.w3.org/1999/xlink" x="0px" y="0px"
	 viewBox="0 0 120 120" style="enable-background:new 0 0 120 120;" xml:space="preserve">
<title>Endpoint Desktop</title>
<metadata><?xpacket begin="﻿" id="W5M0MpCehiHzreSzNTczkc9d"?>
<x:xmpmeta xmlns:x="adobe:ns:meta/" x:xmptk="Adobe XMP Core 6.0-c002 79.164488, 2020/07/10-22:06:53        ">
   <rdf:RDF xmlns:rdf="http://www.w3.org/1999/02/22-rdf-syntax-ns#">
      <rdf:Description rdf:about=""
            xmlns:xmp="http://ns.adobe.com/xap/1.0/"
            xmlns:xmpMM="http://ns.adobe.com/xap/1.0/mm/"
            xmlns:stEvt="http://ns.adobe.com/xap/1.0/sType/ResourceEvent#"
            xmlns:lr="http://ns.adobe.com/lightroom/1.0/"
            xmlns:dc="http://purl.org/dc/elements/1.1/">
         <xmp:MetadataDate>2021-02-15T16:02:48-06:00</xmp:MetadataDate>
         <xmpMM:InstanceID>xmp.iid:754bc7df-ca74-4518-9272-24c246b8d199</xmpMM:InstanceID>
         <xmpMM:DocumentID>xmp.did:2303798a-9747-444f-a943-05bc356fe15e</xmpMM:DocumentID>
         <xmpMM:OriginalDocumentID>xmp.did:2303798a-9747-444f-a943-05bc356fe15e</xmpMM:OriginalDocumentID>
         <xmpMM:History>
            <rdf:Seq>
               <rdf:li>
                  <rdf:Description>
                     <stEvt:action>saved</stEvt:action>
                     <stEvt:instanceID>xmp.iid:2303798a-9747-444f-a943-05bc356fe15e</stEvt:instanceID>
                     <stEvt:when>2021-02-15T14:51:01-06:00</stEvt:when>
                     <stEvt:softwareAgent>Adobe Bridge 2021 (Macintosh)</stEvt:softwareAgent>
                     <stEvt:changed>/metadata</stEvt:changed>
                  </rdf:Description>
               </rdf:li>
               <rdf:li>
                  <rdf:Description>
                     <stEvt:action>saved</stEvt:action>
                     <stEvt:instanceID>xmp.iid:754bc7df-ca74-4518-9272-24c246b8d199</stEvt:instanceID>
                     <stEvt:when>2021-02-15T16:02:48-06:00</stEvt:when>
                     <stEvt:softwareAgent>Adobe Bridge 2021 (Macintosh)</stEvt:softwareAgent>
                     <stEvt:changed>/metadata</stEvt:changed>
                  </rdf:Description>
               </rdf:li>
            </rdf:Seq>
         </xmpMM:History>
         <lr:hierarchicalSubject>
            <rdf:Bag>
               <rdf:li>Category names|Business</rdf:li>
               <rdf:li>Color[JW2]|2-Color</rdf:li>
               <rdf:li>Color[JW2]|Light Background</rdf:li>
               <rdf:li>General[JW1]|Browser</rdf:li>
               <rdf:li>General[JW1]|Computer</rdf:li>
            </rdf:Bag>
         </lr:hierarchicalSubject>
         <dc:subject>
            <rdf:Bag>
               <rdf:li>Business</rdf:li>
               <rdf:li>Icon</rdf:li>
               <rdf:li>2-Color</rdf:li>
               <rdf:li>Light Background</rdf:li>
               <rdf:li>Browser</rdf:li>
               <rdf:li>Computer</rdf:li>
            </rdf:Bag>
         </dc:subject>
         <dc:title>
            <rdf:Alt>
               <rdf:li xml:lang="x-default">Endpoint Desktop</rdf:li>
            </rdf:Alt>
         </dc:title>
      </rdf:Description>
   </rdf:RDF>
</x:xmpmeta>
                                                                                                    
                                                                                                    
                                                                                                    
                                                                                                    
                                                                                                    
                                                                                                    
                                                                                                    
                                                                                                    
                                                                                                    
                                                
<?xpacket end="w"?></metadata>
<style type="text/css">
	.st0{display:none;}
	.st1{display:inline;}
	.st2{fill:#FFFFFF;stroke:#EC008C;stroke-width:0.1;stroke-miterlimit:10;}
	.st3{fill:#0091DA;}
	.st4{fill:#1D428A;}
</style>
<g id="_x39_5x95_Grids" class="st0">
	<g class="st1">
		<rect x="12.1" y="12.6" class="st2" width="5" height="5"/>
		<rect x="17.1" y="12.6" class="st2" width="5" height="5"/>
		<rect x="22.1" y="12.6" class="st2" width="5" height="5"/>
		<rect x="27.1" y="12.6" class="st2" width="5" height="5"/>
		<rect x="32.1" y="12.6" class="st2" width="5" height="5"/>
		<rect x="37.1" y="12.6" class="st2" width="5" height="5"/>
		<rect x="42.1" y="12.6" class="st2" width="5" height="5"/>
		<rect x="47.1" y="12.6" class="st2" width="5" height="5"/>
		<rect x="52.1" y="12.6" class="st2" width="5" height="5"/>
		<rect x="57.1" y="12.6" class="st2" width="5" height="5"/>
		<rect x="62.1" y="12.6" class="st2" width="5" height="5"/>
		<rect x="67.1" y="12.6" class="st2" width="5" height="5"/>
		<rect x="72.1" y="12.6" class="st2" width="5" height="5"/>
		<rect x="77.1" y="12.6" class="st2" width="5" height="5"/>
		<rect x="82.1" y="12.6" class="st2" width="5" height="5"/>
		<rect x="87.1" y="12.6" class="st2" width="5" height="5"/>
		<rect x="92.1" y="12.6" class="st2" width="5" height="5"/>
		<rect x="97.1" y="12.6" class="st2" width="5" height="5"/>
		<rect x="102.1" y="12.6" class="st2" width="5" height="5"/>
		<rect x="12.1" y="17.6" class="st2" width="5" height="5"/>
		<rect x="17.1" y="17.6" class="st2" width="5" height="5"/>
		<rect x="22.1" y="17.6" class="st2" width="5" height="5"/>
		<rect x="27.1" y="17.6" class="st2" width="5" height="5"/>
		<rect x="32.1" y="17.6" class="st2" width="5" height="5"/>
		<rect x="37.1" y="17.6" class="st2" width="5" height="5"/>
		<rect x="42.1" y="17.6" class="st2" width="5" height="5"/>
		<rect x="47.1" y="17.6" class="st2" width="5" height="5"/>
		<rect x="52.1" y="17.6" class="st2" width="5" height="5"/>
		<rect x="57.1" y="17.6" class="st2" width="5" height="5"/>
		<rect x="62.1" y="17.6" class="st2" width="5" height="5"/>
		<rect x="67.1" y="17.6" class="st2" width="5" height="5"/>
		<rect x="72.1" y="17.6" class="st2" width="5" height="5"/>
		<rect x="77.1" y="17.6" class="st2" width="5" height="5"/>
		<rect x="82.1" y="17.6" class="st2" width="5" height="5"/>
		<rect x="87.1" y="17.6" class="st2" width="5" height="5"/>
		<rect x="92.1" y="17.6" class="st2" width="5" height="5"/>
		<rect x="97.1" y="17.6" class="st2" width="5" height="5"/>
		<rect x="102.1" y="17.6" class="st2" width="5" height="5"/>
		<rect x="12.1" y="22.6" class="st2" width="5" height="5"/>
		<rect x="17.1" y="22.6" class="st2" width="5" height="5"/>
		<rect x="22.1" y="22.6" class="st2" width="5" height="5"/>
		<rect x="27.1" y="22.6" class="st2" width="5" height="5"/>
		<rect x="32.1" y="22.6" class="st2" width="5" height="5"/>
		<rect x="37.1" y="22.6" class="st2" width="5" height="5"/>
		<rect x="42.1" y="22.6" class="st2" width="5" height="5"/>
		<rect x="47.1" y="22.6" class="st2" width="5" height="5"/>
		<rect x="52.1" y="22.6" class="st2" width="5" height="5"/>
		<rect x="57.1" y="22.6" class="st2" width="5" height="5"/>
		<rect x="62.1" y="22.6" class="st2" width="5" height="5"/>
		<rect x="67.1" y="22.6" class="st2" width="5" height="5"/>
		<rect x="72.1" y="22.6" class="st2" width="5" height="5"/>
		<rect x="77.1" y="22.6" class="st2" width="5" height="5"/>
		<rect x="82.1" y="22.6" class="st2" width="5" height="5"/>
		<rect x="87.1" y="22.6" class="st2" width="5" height="5"/>
		<rect x="92.1" y="22.6" class="st2" width="5" height="5"/>
		<rect x="97.1" y="22.6" class="st2" width="5" height="5"/>
		<rect x="102.1" y="22.6" class="st2" width="5" height="5"/>
		<rect x="12.1" y="27.6" class="st2" width="5" height="5"/>
		<rect x="17.1" y="27.6" class="st2" width="5" height="5"/>
		<rect x="22.1" y="27.6" class="st2" width="5" height="5"/>
		<rect x="27.1" y="27.6" class="st2" width="5" height="5"/>
		<rect x="32.1" y="27.6" class="st2" width="5" height="5"/>
		<rect x="37.1" y="27.6" class="st2" width="5" height="5"/>
		<rect x="42.1" y="27.6" class="st2" width="5" height="5"/>
		<rect x="47.1" y="27.6" class="st2" width="5" height="5"/>
		<rect x="52.1" y="27.6" class="st2" width="5" height="5"/>
		<rect x="57.1" y="27.6" class="st2" width="5" height="5"/>
		<rect x="62.1" y="27.6" class="st2" width="5" height="5"/>
		<rect x="67.1" y="27.6" class="st2" width="5" height="5"/>
		<rect x="72.1" y="27.6" class="st2" width="5" height="5"/>
		<rect x="77.1" y="27.6" class="st2" width="5" height="5"/>
		<rect x="82.1" y="27.6" class="st2" width="5" height="5"/>
		<rect x="87.1" y="27.6" class="st2" width="5" height="5"/>
		<rect x="92.1" y="27.6" class="st2" width="5" height="5"/>
		<rect x="97.1" y="27.6" class="st2" width="5" height="5"/>
		<rect x="102.1" y="27.6" class="st2" width="5" height="5"/>
		<rect x="12.1" y="32.6" class="st2" width="5" height="5"/>
		<rect x="17.1" y="32.6" class="st2" width="5" height="5"/>
		<rect x="22.1" y="32.6" class="st2" width="5" height="5"/>
		<rect x="27.1" y="32.6" class="st2" width="5" height="5"/>
		<rect x="32.1" y="32.6" class="st2" width="5" height="5"/>
		<rect x="37.1" y="32.6" class="st2" width="5" height="5"/>
		<rect x="42.1" y="32.6" class="st2" width="5" height="5"/>
		<rect x="47.1" y="32.6" class="st2" width="5" height="5"/>
		<rect x="52.1" y="32.6" class="st2" width="5" height="5"/>
		<rect x="57.1" y="32.6" class="st2" width="5" height="5"/>
		<rect x="62.1" y="32.6" class="st2" width="5" height="5"/>
		<rect x="67.1" y="32.6" class="st2" width="5" height="5"/>
		<rect x="72.1" y="32.6" class="st2" width="5" height="5"/>
		<rect x="77.1" y="32.6" class="st2" width="5" height="5"/>
		<rect x="82.1" y="32.6" class="st2" width="5" height="5"/>
		<rect x="87.1" y="32.6" class="st2" width="5" height="5"/>
		<rect x="92.1" y="32.6" class="st2" width="5" height="5"/>
		<rect x="97.1" y="32.6" class="st2" width="5" height="5"/>
		<rect x="102.1" y="32.6" class="st2" width="5" height="5"/>
		<rect x="12.1" y="37.6" class="st2" width="5" height="5"/>
		<rect x="17.1" y="37.6" class="st2" width="5" height="5"/>
		<rect x="22.1" y="37.6" class="st2" width="5" height="5"/>
		<rect x="27.1" y="37.6" class="st2" width="5" height="5"/>
		<rect x="32.1" y="37.6" class="st2" width="5" height="5"/>
		<rect x="37.1" y="37.6" class="st2" width="5" height="5"/>
		<rect x="42.1" y="37.6" class="st2" width="5" height="5"/>
		<rect x="47.1" y="37.6" class="st2" width="5" height="5"/>
		<rect x="52.1" y="37.6" class="st2" width="5" height="5"/>
		<rect x="57.1" y="37.6" class="st2" width="5" height="5"/>
		<rect x="62.1" y="37.6" class="st2" width="5" height="5"/>
		<rect x="67.1" y="37.6" class="st2" width="5" height="5"/>
		<rect x="72.1" y="37.6" class="st2" width="5" height="5"/>
		<rect x="77.1" y="37.6" class="st2" width="5" height="5"/>
		<rect x="82.1" y="37.6" class="st2" width="5" height="5"/>
		<rect x="87.1" y="37.6" class="st2" width="5" height="5"/>
		<rect x="92.1" y="37.6" class="st2" width="5" height="5"/>
		<rect x="97.1" y="37.6" class="st2" width="5" height="5"/>
		<rect x="102.1" y="37.6" class="st2" width="5" height="5"/>
		<rect x="12.1" y="42.6" class="st2" width="5" height="5"/>
		<rect x="17.1" y="42.6" class="st2" width="5" height="5"/>
		<rect x="22.1" y="42.6" class="st2" width="5" height="5"/>
		<rect x="27.1" y="42.6" class="st2" width="5" height="5"/>
		<rect x="32.1" y="42.6" class="st2" width="5" height="5"/>
		<rect x="37.1" y="42.6" class="st2" width="5" height="5"/>
		<rect x="42.1" y="42.6" class="st2" width="5" height="5"/>
		<rect x="47.1" y="42.6" class="st2" width="5" height="5"/>
		<rect x="52.1" y="42.6" class="st2" width="5" height="5"/>
		<rect x="57.1" y="42.6" class="st2" width="5" height="5"/>
		<rect x="62.1" y="42.6" class="st2" width="5" height="5"/>
		<rect x="67.1" y="42.6" class="st2" width="5" height="5"/>
		<rect x="72.1" y="42.6" class="st2" width="5" height="5"/>
		<rect x="77.1" y="42.6" class="st2" width="5" height="5"/>
		<rect x="82.1" y="42.6" class="st2" width="5" height="5"/>
		<rect x="87.1" y="42.6" class="st2" width="5" height="5"/>
		<rect x="92.1" y="42.6" class="st2" width="5" height="5"/>
		<rect x="97.1" y="42.6" class="st2" width="5" height="5"/>
		<rect x="102.1" y="42.6" class="st2" width="5" height="5"/>
		<rect x="12.1" y="47.6" class="st2" width="5" height="5"/>
		<rect x="17.1" y="47.6" class="st2" width="5" height="5"/>
		<rect x="22.1" y="47.6" class="st2" width="5" height="5"/>
		<rect x="27.1" y="47.6" class="st2" width="5" height="5"/>
		<rect x="32.1" y="47.6" class="st2" width="5" height="5"/>
		<rect x="37.1" y="47.6" class="st2" width="5" height="5"/>
		<rect x="42.1" y="47.6" class="st2" width="5" height="5"/>
		<rect x="47.1" y="47.6" class="st2" width="5" height="5"/>
		<rect x="52.1" y="47.6" class="st2" width="5" height="5"/>
		<rect x="57.1" y="47.6" class="st2" width="5" height="5"/>
		<rect x="62.1" y="47.6" class="st2" width="5" height="5"/>
		<rect x="67.1" y="47.6" class="st2" width="5" height="5"/>
		<rect x="72.1" y="47.6" class="st2" width="5" height="5"/>
		<rect x="77.1" y="47.6" class="st2" width="5" height="5"/>
		<rect x="82.1" y="47.6" class="st2" width="5" height="5"/>
		<rect x="87.1" y="47.6" class="st2" width="5" height="5"/>
		<rect x="92.1" y="47.6" class="st2" width="5" height="5"/>
		<rect x="97.1" y="47.6" class="st2" width="5" height="5"/>
		<rect x="102.1" y="47.6" class="st2" width="5" height="5"/>
		<rect x="12.1" y="52.6" class="st2" width="5" height="5"/>
		<rect x="17.1" y="52.6" class="st2" width="5" height="5"/>
		<rect x="22.1" y="52.6" class="st2" width="5" height="5"/>
		<rect x="27.1" y="52.6" class="st2" width="5" height="5"/>
		<rect x="32.1" y="52.6" class="st2" width="5" height="5"/>
		<rect x="37.1" y="52.6" class="st2" width="5" height="5"/>
		<rect x="42.1" y="52.6" class="st2" width="5" height="5"/>
		<rect x="47.1" y="52.6" class="st2" width="5" height="5"/>
		<rect x="52.1" y="52.6" class="st2" width="5" height="5"/>
		<rect x="57.1" y="52.6" class="st2" width="5" height="5"/>
		<rect x="62.1" y="52.6" class="st2" width="5" height="5"/>
		<rect x="67.1" y="52.6" class="st2" width="5" height="5"/>
		<rect x="72.1" y="52.6" class="st2" width="5" height="5"/>
		<rect x="77.1" y="52.6" class="st2" width="5" height="5"/>
		<rect x="82.1" y="52.6" class="st2" width="5" height="5"/>
		<rect x="87.1" y="52.6" class="st2" width="5" height="5"/>
		<rect x="92.1" y="52.6" class="st2" width="5" height="5"/>
		<rect x="97.1" y="52.6" class="st2" width="5" height="5"/>
		<rect x="102.1" y="52.6" class="st2" width="5" height="5"/>
		<rect x="12.1" y="57.6" class="st2" width="5" height="5"/>
		<rect x="17.1" y="57.6" class="st2" width="5" height="5"/>
		<rect x="22.1" y="57.6" class="st2" width="5" height="5"/>
		<rect x="27.1" y="57.6" class="st2" width="5" height="5"/>
		<rect x="32.1" y="57.6" class="st2" width="5" height="5"/>
		<rect x="37.1" y="57.6" class="st2" width="5" height="5"/>
		<rect x="42.1" y="57.6" class="st2" width="5" height="5"/>
		<rect x="47.1" y="57.6" class="st2" width="5" height="5"/>
		<rect x="52.1" y="57.6" class="st2" width="5" height="5"/>
		<rect x="57.1" y="57.6" class="st2" width="5" height="5"/>
		<rect x="62.1" y="57.6" class="st2" width="5" height="5"/>
		<rect x="67.1" y="57.6" class="st2" width="5" height="5"/>
		<rect x="72.1" y="57.6" class="st2" width="5" height="5"/>
		<rect x="77.1" y="57.6" class="st2" width="5" height="5"/>
		<rect x="82.1" y="57.6" class="st2" width="5" height="5"/>
		<rect x="87.1" y="57.6" class="st2" width="5" height="5"/>
		<rect x="92.1" y="57.6" class="st2" width="5" height="5"/>
		<rect x="97.1" y="57.6" class="st2" width="5" height="5"/>
		<rect x="102.1" y="57.6" class="st2" width="5" height="5"/>
		<rect x="12.1" y="62.6" class="st2" width="5" height="5"/>
		<rect x="17.1" y="62.6" class="st2" width="5" height="5"/>
		<rect x="22.1" y="62.6" class="st2" width="5" height="5"/>
		<rect x="27.1" y="62.6" class="st2" width="5" height="5"/>
		<rect x="32.1" y="62.6" class="st2" width="5" height="5"/>
		<rect x="37.1" y="62.6" class="st2" width="5" height="5"/>
		<rect x="42.1" y="62.6" class="st2" width="5" height="5"/>
		<rect x="47.1" y="62.6" class="st2" width="5" height="5"/>
		<rect x="52.1" y="62.6" class="st2" width="5" height="5"/>
		<rect x="57.1" y="62.6" class="st2" width="5" height="5"/>
		<rect x="62.1" y="62.6" class="st2" width="5" height="5"/>
		<rect x="67.1" y="62.6" class="st2" width="5" height="5"/>
		<rect x="72.1" y="62.6" class="st2" width="5" height="5"/>
		<rect x="77.1" y="62.6" class="st2" width="5" height="5"/>
		<rect x="82.1" y="62.6" class="st2" width="5" height="5"/>
		<rect x="87.1" y="62.6" class="st2" width="5" height="5"/>
		<rect x="92.1" y="62.6" class="st2" width="5" height="5"/>
		<rect x="97.1" y="62.6" class="st2" width="5" height="5"/>
		<rect x="102.1" y="62.6" class="st2" width="5" height="5"/>
		<rect x="12.1" y="67.6" class="st2" width="5" height="5"/>
		<rect x="17.1" y="67.6" class="st2" width="5" height="5"/>
		<rect x="22.1" y="67.6" class="st2" width="5" height="5"/>
		<rect x="27.1" y="67.6" class="st2" width="5" height="5"/>
		<rect x="32.1" y="67.6" class="st2" width="5" height="5"/>
		<rect x="37.1" y="67.6" class="st2" width="5" height="5"/>
		<rect x="42.1" y="67.6" class="st2" width="5" height="5"/>
		<rect x="47.1" y="67.6" class="st2" width="5" height="5"/>
		<rect x="52.1" y="67.6" class="st2" width="5" height="5"/>
		<rect x="57.1" y="67.6" class="st2" width="5" height="5"/>
		<rect x="62.1" y="67.6" class="st2" width="5" height="5"/>
		<rect x="67.1" y="67.6" class="st2" width="5" height="5"/>
		<rect x="72.1" y="67.6" class="st2" width="5" height="5"/>
		<rect x="77.1" y="67.6" class="st2" width="5" height="5"/>
		<rect x="82.1" y="67.6" class="st2" width="5" height="5"/>
		<rect x="87.1" y="67.6" class="st2" width="5" height="5"/>
		<rect x="92.1" y="67.6" class="st2" width="5" height="5"/>
		<rect x="97.1" y="67.6" class="st2" width="5" height="5"/>
		<rect x="102.1" y="67.6" class="st2" width="5" height="5"/>
		<rect x="12.1" y="72.6" class="st2" width="5" height="5"/>
		<rect x="17.1" y="72.6" class="st2" width="5" height="5"/>
		<rect x="22.1" y="72.6" class="st2" width="5" height="5"/>
		<rect x="27.1" y="72.6" class="st2" width="5" height="5"/>
		<rect x="32.1" y="72.6" class="st2" width="5" height="5"/>
		<rect x="37.1" y="72.6" class="st2" width="5" height="5"/>
		<rect x="42.1" y="72.6" class="st2" width="5" height="5"/>
		<rect x="47.1" y="72.6" class="st2" width="5" height="5"/>
		<rect x="52.1" y="72.6" class="st2" width="5" height="5"/>
		<rect x="57.1" y="72.6" class="st2" width="5" height="5"/>
		<rect x="62.1" y="72.6" class="st2" width="5" height="5"/>
		<rect x="67.1" y="72.6" class="st2" width="5" height="5"/>
		<rect x="72.1" y="72.6" class="st2" width="5" height="5"/>
		<rect x="77.1" y="72.6" class="st2" width="5" height="5"/>
		<rect x="82.1" y="72.6" class="st2" width="5" height="5"/>
		<rect x="87.1" y="72.6" class="st2" width="5" height="5"/>
		<rect x="92.1" y="72.6" class="st2" width="5" height="5"/>
		<rect x="97.1" y="72.6" class="st2" width="5" height="5"/>
		<rect x="102.1" y="72.6" class="st2" width="5" height="5"/>
		<rect x="12.1" y="77.6" class="st2" width="5" height="5"/>
		<rect x="17.1" y="77.6" class="st2" width="5" height="5"/>
		<rect x="22.1" y="77.6" class="st2" width="5" height="5"/>
		<rect x="27.1" y="77.6" class="st2" width="5" height="5"/>
		<rect x="32.1" y="77.6" class="st2" width="5" height="5"/>
		<rect x="37.1" y="77.6" class="st2" width="5" height="5"/>
		<rect x="42.1" y="77.6" class="st2" width="5" height="5"/>
		<rect x="47.1" y="77.6" class="st2" width="5" height="5"/>
		<rect x="52.1" y="77.6" class="st2" width="5" height="5"/>
		<rect x="57.1" y="77.6" class="st2" width="5" height="5"/>
		<rect x="62.1" y="77.6" class="st2" width="5" height="5"/>
		<rect x="67.1" y="77.6" class="st2" width="5" height="5"/>
		<rect x="72.1" y="77.6" class="st2" width="5" height="5"/>
		<rect x="77.1" y="77.6" class="st2" width="5" height="5"/>
		<rect x="82.1" y="77.6" class="st2" width="5" height="5"/>
		<rect x="87.1" y="77.6" class="st2" width="5" height="5"/>
		<rect x="92.1" y="77.6" class="st2" width="5" height="5"/>
		<rect x="97.1" y="77.6" class="st2" width="5" height="5"/>
		<rect x="102.1" y="77.6" class="st2" width="5" height="5"/>
		<rect x="12.1" y="82.6" class="st2" width="5" height="5"/>
		<rect x="17.1" y="82.6" class="st2" width="5" height="5"/>
		<rect x="22.1" y="82.6" class="st2" width="5" height="5"/>
		<rect x="27.1" y="82.6" class="st2" width="5" height="5"/>
		<rect x="32.1" y="82.6" class="st2" width="5" height="5"/>
		<rect x="37.1" y="82.6" class="st2" width="5" height="5"/>
		<rect x="42.1" y="82.6" class="st2" width="5" height="5"/>
		<rect x="47.1" y="82.6" class="st2" width="5" height="5"/>
		<rect x="52.1" y="82.6" class="st2" width="5" height="5"/>
		<rect x="57.1" y="82.6" class="st2" width="5" height="5"/>
		<rect x="62.1" y="82.6" class="st2" width="5" height="5"/>
		<rect x="67.1" y="82.6" class="st2" width="5" height="5"/>
		<rect x="72.1" y="82.6" class="st2" width="5" height="5"/>
		<rect x="77.1" y="82.6" class="st2" width="5" height="5"/>
		<rect x="82.1" y="82.6" class="st2" width="5" height="5"/>
		<rect x="87.1" y="82.6" class="st2" width="5" height="5"/>
		<rect x="92.1" y="82.6" class="st2" width="5" height="5"/>
		<rect x="97.1" y="82.6" class="st2" width="5" height="5"/>
		<rect x="102.1" y="82.6" class="st2" width="5" height="5"/>
		<rect x="12.1" y="87.6" class="st2" width="5" height="5"/>
		<rect x="17.1" y="87.6" class="st2" width="5" height="5"/>
		<rect x="22.1" y="87.6" class="st2" width="5" height="5"/>
		<rect x="27.1" y="87.6" class="st2" width="5" height="5"/>
		<rect x="32.1" y="87.6" class="st2" width="5" height="5"/>
		<rect x="37.1" y="87.6" class="st2" width="5" height="5"/>
		<rect x="42.1" y="87.6" class="st2" width="5" height="5"/>
		<rect x="47.1" y="87.6" class="st2" width="5" height="5"/>
		<rect x="52.1" y="87.6" class="st2" width="5" height="5"/>
		<rect x="57.1" y="87.6" class="st2" width="5" height="5"/>
		<rect x="62.1" y="87.6" class="st2" width="5" height="5"/>
		<rect x="67.1" y="87.6" class="st2" width="5" height="5"/>
		<rect x="72.1" y="87.6" class="st2" width="5" height="5"/>
		<rect x="77.1" y="87.6" class="st2" width="5" height="5"/>
		<rect x="82.1" y="87.6" class="st2" width="5" height="5"/>
		<rect x="87.1" y="87.6" class="st2" width="5" height="5"/>
		<rect x="92.1" y="87.6" class="st2" width="5" height="5"/>
		<rect x="97.1" y="87.6" class="st2" width="5" height="5"/>
		<rect x="102.1" y="87.6" class="st2" width="5" height="5"/>
		<rect x="12.1" y="92.6" class="st2" width="5" height="5"/>
		<rect x="17.1" y="92.6" class="st2" width="5" height="5"/>
		<rect x="22.1" y="92.6" class="st2" width="5" height="5"/>
		<rect x="27.1" y="92.6" class="st2" width="5" height="5"/>
		<rect x="32.1" y="92.6" class="st2" width="5" height="5"/>
		<rect x="37.1" y="92.6" class="st2" width="5" height="5"/>
		<rect x="42.1" y="92.6" class="st2" width="5" height="5"/>
		<rect x="47.1" y="92.6" class="st2" width="5" height="5"/>
		<rect x="52.1" y="92.6" class="st2" width="5" height="5"/>
		<rect x="57.1" y="92.6" class="st2" width="5" height="5"/>
		<rect x="62.1" y="92.6" class="st2" width="5" height="5"/>
		<rect x="67.1" y="92.6" class="st2" width="5" height="5"/>
		<rect x="72.1" y="92.6" class="st2" width="5" height="5"/>
		<rect x="77.1" y="92.6" class="st2" width="5" height="5"/>
		<rect x="82.1" y="92.6" class="st2" width="5" height="5"/>
		<rect x="87.1" y="92.6" class="st2" width="5" height="5"/>
		<rect x="92.1" y="92.6" class="st2" width="5" height="5"/>
		<rect x="97.1" y="92.6" class="st2" width="5" height="5"/>
		<rect x="102.1" y="92.6" class="st2" width="5" height="5"/>
		<rect x="12.1" y="97.6" class="st2" width="5" height="5"/>
		<rect x="17.1" y="97.6" class="st2" width="5" height="5"/>
		<rect x="22.1" y="97.6" class="st2" width="5" height="5"/>
		<rect x="27.1" y="97.6" class="st2" width="5" height="5"/>
		<rect x="32.1" y="97.6" class="st2" width="5" height="5"/>
		<rect x="37.1" y="97.6" class="st2" width="5" height="5"/>
		<rect x="42.1" y="97.6" class="st2" width="5" height="5"/>
		<rect x="47.1" y="97.6" class="st2" width="5" height="5"/>
		<rect x="52.1" y="97.6" class="st2" width="5" height="5"/>
		<rect x="57.1" y="97.6" class="st2" width="5" height="5"/>
		<rect x="62.1" y="97.6" class="st2" width="5" height="5"/>
		<rect x="67.1" y="97.6" class="st2" width="5" height="5"/>
		<rect x="72.1" y="97.6" class="st2" width="5" height="5"/>
		<rect x="77.1" y="97.6" class="st2" width="5" height="5"/>
		<rect x="82.1" y="97.6" class="st2" width="5" height="5"/>
		<rect x="87.1" y="97.6" class="st2" width="5" height="5"/>
		<rect x="92.1" y="97.6" class="st2" width="5" height="5"/>
		<rect x="97.1" y="97.6" class="st2" width="5" height="5"/>
		<rect x="102.1" y="97.6" class="st2" width="5" height="5"/>
		<rect x="12.1" y="102.6" class="st2" width="5" height="5"/>
		<rect x="17.1" y="102.6" class="st2" width="5" height="5"/>
		<rect x="22.1" y="102.6" class="st2" width="5" height="5"/>
		<rect x="27.1" y="102.6" class="st2" width="5" height="5"/>
		<rect x="32.1" y="102.6" class="st2" width="5" height="5"/>
		<rect x="37.1" y="102.6" class="st2" width="5" height="5"/>
		<rect x="42.1" y="102.6" class="st2" width="5" height="5"/>
		<rect x="47.1" y="102.6" class="st2" width="5" height="5"/>
		<rect x="52.1" y="102.6" class="st2" width="5" height="5"/>
		<rect x="57.1" y="102.6" class="st2" width="5" height="5"/>
		<rect x="62.1" y="102.6" class="st2" width="5" height="5"/>
		<rect x="67.1" y="102.6" class="st2" width="5" height="5"/>
		<rect x="72.1" y="102.6" class="st2" width="5" height="5"/>
		<rect x="77.1" y="102.6" class="st2" width="5" height="5"/>
		<rect x="82.1" y="102.6" class="st2" width="5" height="5"/>
		<rect x="87.1" y="102.6" class="st2" width="5" height="5"/>
		<rect x="92.1" y="102.6" class="st2" width="5" height="5"/>
		<rect x="97.1" y="102.6" class="st2" width="5" height="5"/>
		<rect x="102.1" y="102.6" class="st2" width="5" height="5"/>
	</g>
</g>
<g id="Business_2color-light_bk">
	<g id="Endpoint_Desktop_1_">
		<g>
			<path class="st3" d="M31.2,37.6c1.3,0,2.2,0.9,2.2,2.3c0,1.3-0.9,2.2-2.2,2.2h0c-1.4,0-2.2-0.9-2.2-2.2
				C29,38.5,29.9,37.6,31.2,37.6z"/>
			<path class="st3" d="M38.1,37.6c1.3,0,2.2,0.9,2.2,2.3c0,1.3-0.9,2.2-2.2,2.2h0c-1.4,0-2.2-0.9-2.2-2.2
				C35.9,38.5,36.8,37.6,38.1,37.6z"/>
			<path class="st3" d="M45,37.6c1.3,0,2.2,0.9,2.2,2.3c0,1.3-0.9,2.2-2.2,2.2h0c-1.4,0-2.2-0.9-2.2-2.2
				C42.8,38.5,43.7,37.6,45,37.6z"/>
		</g>
		<g>
			<g>
				<path class="st4" d="M75.4,105.6H44.7c-0.9,0-1.6-0.6-1.9-1.4c-0.3-0.9,0.1-1.8,0.8-2.3c1.6-1.1,5.6-2.7,7.3-3.3l1.7-12.6
					l2.5,0.3l-1.9,14.1l-0.7,0.3c-1.2,0.4-3.9,1.5-5.8,2.4h26.8c-1.9-0.9-4.6-2-5.8-2.4l-0.7-0.3l-1.4-14.1l2.5-0.2l1.2,12.6
					c1.7,0.7,5.8,2.3,7.3,3.3c0.7,0.5,1,1.4,0.8,2.3C77,105,76.3,105.6,75.4,105.6z"/>
			</g>
			<path class="st4" d="M101.9,25.9c1.4,0,2.6,1.1,2.6,2.4v50.4c0,1.2-1.1,2.2-2.4,2.2H17.7c-1.2,0-2.2-0.9-2.2-2v-51
				c0-1.1,1-2,2.2-2H101.9 M101.9,23.4H17.7c-2.6,0-4.7,2-4.7,4.5v51c0,2.5,2.1,4.5,4.7,4.5h84.4c2.7,0,4.9-2.1,4.9-4.7V28.3
				C107,25.6,104.7,23.4,101.9,23.4L101.9,23.4z"/>
			<g>
				<polygon class="st3" points="97,74.9 94.5,74.9 94.5,34.5 25.5,34.5 25.5,74.9 23,74.9 23,32 97,32 				"/>
			</g>
			<g>
				<rect x="24.2" y="45.5" class="st3" width="67.6" height="2.5"/>
			</g>
		</g>
	</g>
</g>
</svg>
