<?xml version="1.0" encoding="utf-8"?>
<!-- Generator: Adobe Illustrator 25.1.0, SVG Export Plug-In . SVG Version: 6.00 Build 0)  -->
<svg version="1.1" xmlns="http://www.w3.org/2000/svg" xmlns:xlink="http://www.w3.org/1999/xlink" x="0px" y="0px"
	 viewBox="0 0 120 120" style="enable-background:new 0 0 120 120;" xml:space="preserve">
<title>Automated Management</title>
<metadata><?xpacket begin="﻿" id="W5M0MpCehiHzreSzNTczkc9d"?>
<x:xmpmeta xmlns:x="adobe:ns:meta/" x:xmptk="Adobe XMP Core 6.0-c002 79.164488, 2020/07/10-22:06:53        ">
   <rdf:RDF xmlns:rdf="http://www.w3.org/1999/02/22-rdf-syntax-ns#">
      <rdf:Description rdf:about=""
            xmlns:xmp="http://ns.adobe.com/xap/1.0/"
            xmlns:xmpMM="http://ns.adobe.com/xap/1.0/mm/"
            xmlns:stEvt="http://ns.adobe.com/xap/1.0/sType/ResourceEvent#"
            xmlns:lr="http://ns.adobe.com/lightroom/1.0/"
            xmlns:dc="http://purl.org/dc/elements/1.1/">
         <xmp:MetadataDate>2021-02-15T17:34:42-06:00</xmp:MetadataDate>
         <xmpMM:InstanceID>xmp.iid:5caa9104-307f-41a6-8dcf-64c87f920d0f</xmpMM:InstanceID>
         <xmpMM:DocumentID>xmp.did:090a41a0-d948-41b2-a294-29d551ce2bad</xmpMM:DocumentID>
         <xmpMM:OriginalDocumentID>xmp.did:090a41a0-d948-41b2-a294-29d551ce2bad</xmpMM:OriginalDocumentID>
         <xmpMM:History>
            <rdf:Seq>
               <rdf:li>
                  <rdf:Description>
                     <stEvt:action>saved</stEvt:action>
                     <stEvt:instanceID>xmp.iid:090a41a0-d948-41b2-a294-29d551ce2bad</stEvt:instanceID>
                     <stEvt:when>2021-02-15T14:56:02-06:00</stEvt:when>
                     <stEvt:softwareAgent>Adobe Bridge 2021 (Macintosh)</stEvt:softwareAgent>
                     <stEvt:changed>/metadata</stEvt:changed>
                  </rdf:Description>
               </rdf:li>
               <rdf:li>
                  <rdf:Description>
                     <stEvt:action>saved</stEvt:action>
                     <stEvt:instanceID>xmp.iid:5caa9104-307f-41a6-8dcf-64c87f920d0f</stEvt:instanceID>
                     <stEvt:when>2021-02-15T17:34:42-06:00</stEvt:when>
                     <stEvt:softwareAgent>Adobe Bridge 2021 (Macintosh)</stEvt:softwareAgent>
                     <stEvt:changed>/metadata</stEvt:changed>
                  </rdf:Description>
               </rdf:li>
            </rdf:Seq>
         </xmpMM:History>
         <lr:hierarchicalSubject>
            <rdf:Bag>
               <rdf:li>Category names|Tools</rdf:li>
               <rdf:li>Category names|Processes</rdf:li>
               <rdf:li>Category names|Performance</rdf:li>
               <rdf:li>Color[JW2]|2-Color</rdf:li>
               <rdf:li>Color[JW2]|Light Background</rdf:li>
               <rdf:li>General[JW1]|Browser</rdf:li>
               <rdf:li>General[JW1]|Arrow</rdf:li>
               <rdf:li>General[JW1]|Gear</rdf:li>
               <rdf:li>Virtual Cloud Network|Automation</rdf:li>
            </rdf:Bag>
         </lr:hierarchicalSubject>
         <dc:subject>
            <rdf:Bag>
               <rdf:li>Tools</rdf:li>
               <rdf:li>Processes</rdf:li>
               <rdf:li>Performance</rdf:li>
               <rdf:li>Icon</rdf:li>
               <rdf:li>2-Color</rdf:li>
               <rdf:li>Light Background</rdf:li>
               <rdf:li>Browser</rdf:li>
               <rdf:li>Arrow</rdf:li>
               <rdf:li>Gear</rdf:li>
               <rdf:li>Automation</rdf:li>
            </rdf:Bag>
         </dc:subject>
         <dc:title>
            <rdf:Alt>
               <rdf:li xml:lang="x-default">Automated Management</rdf:li>
            </rdf:Alt>
         </dc:title>
      </rdf:Description>
   </rdf:RDF>
</x:xmpmeta>
                                                                                                    
                                                                                                    
                                                                                                    
                                                                                                    
                                                                                                    
                                                         
<?xpacket end="w"?></metadata>
<style type="text/css">
	.st0{display:none;}
	.st1{display:inline;}
	.st2{fill:#FFFFFF;stroke:#EC008C;stroke-width:0.1;stroke-miterlimit:10;}
	.st3{fill:#1D428A;}
	.st4{fill:#0091DA;}
</style>
<g id="_x39_5x95_Grids" class="st0">
	<g class="st1">
		<rect x="11.9" y="11.4" class="st2" width="5" height="5"/>
		<rect x="16.9" y="11.4" class="st2" width="5" height="5"/>
		<rect x="21.9" y="11.4" class="st2" width="5" height="5"/>
		<rect x="26.9" y="11.4" class="st2" width="5" height="5"/>
		<rect x="31.9" y="11.4" class="st2" width="5" height="5"/>
		<rect x="36.9" y="11.4" class="st2" width="5" height="5"/>
		<rect x="41.9" y="11.4" class="st2" width="5" height="5"/>
		<rect x="46.9" y="11.4" class="st2" width="5" height="5"/>
		<rect x="51.9" y="11.4" class="st2" width="5" height="5"/>
		<rect x="56.9" y="11.4" class="st2" width="5" height="5"/>
		<rect x="61.9" y="11.4" class="st2" width="5" height="5"/>
		<rect x="66.9" y="11.4" class="st2" width="5" height="5"/>
		<rect x="71.9" y="11.4" class="st2" width="5" height="5"/>
		<rect x="76.9" y="11.4" class="st2" width="5" height="5"/>
		<rect x="81.9" y="11.4" class="st2" width="5" height="5"/>
		<rect x="86.9" y="11.4" class="st2" width="5" height="5"/>
		<rect x="91.9" y="11.4" class="st2" width="5" height="5"/>
		<rect x="96.9" y="11.4" class="st2" width="5" height="5"/>
		<rect x="101.9" y="11.4" class="st2" width="5" height="5"/>
		<rect x="11.9" y="16.4" class="st2" width="5" height="5"/>
		<rect x="16.9" y="16.4" class="st2" width="5" height="5"/>
		<rect x="21.9" y="16.4" class="st2" width="5" height="5"/>
		<rect x="26.9" y="16.4" class="st2" width="5" height="5"/>
		<rect x="31.9" y="16.4" class="st2" width="5" height="5"/>
		<rect x="36.9" y="16.4" class="st2" width="5" height="5"/>
		<rect x="41.9" y="16.4" class="st2" width="5" height="5"/>
		<rect x="46.9" y="16.4" class="st2" width="5" height="5"/>
		<rect x="51.9" y="16.4" class="st2" width="5" height="5"/>
		<rect x="56.9" y="16.4" class="st2" width="5" height="5"/>
		<rect x="61.9" y="16.4" class="st2" width="5" height="5"/>
		<rect x="66.9" y="16.4" class="st2" width="5" height="5"/>
		<rect x="71.9" y="16.4" class="st2" width="5" height="5"/>
		<rect x="76.9" y="16.4" class="st2" width="5" height="5"/>
		<rect x="81.9" y="16.4" class="st2" width="5" height="5"/>
		<rect x="86.9" y="16.4" class="st2" width="5" height="5"/>
		<rect x="91.9" y="16.4" class="st2" width="5" height="5"/>
		<rect x="96.9" y="16.4" class="st2" width="5" height="5"/>
		<rect x="101.9" y="16.4" class="st2" width="5" height="5"/>
		<rect x="11.9" y="21.4" class="st2" width="5" height="5"/>
		<rect x="16.9" y="21.4" class="st2" width="5" height="5"/>
		<rect x="21.9" y="21.4" class="st2" width="5" height="5"/>
		<rect x="26.9" y="21.4" class="st2" width="5" height="5"/>
		<rect x="31.9" y="21.4" class="st2" width="5" height="5"/>
		<rect x="36.9" y="21.4" class="st2" width="5" height="5"/>
		<rect x="41.9" y="21.4" class="st2" width="5" height="5"/>
		<rect x="46.9" y="21.4" class="st2" width="5" height="5"/>
		<rect x="51.9" y="21.4" class="st2" width="5" height="5"/>
		<rect x="56.9" y="21.4" class="st2" width="5" height="5"/>
		<rect x="61.9" y="21.4" class="st2" width="5" height="5"/>
		<rect x="66.9" y="21.4" class="st2" width="5" height="5"/>
		<rect x="71.9" y="21.4" class="st2" width="5" height="5"/>
		<rect x="76.9" y="21.4" class="st2" width="5" height="5"/>
		<rect x="81.9" y="21.4" class="st2" width="5" height="5"/>
		<rect x="86.9" y="21.4" class="st2" width="5" height="5"/>
		<rect x="91.9" y="21.4" class="st2" width="5" height="5"/>
		<rect x="96.9" y="21.4" class="st2" width="5" height="5"/>
		<rect x="101.9" y="21.4" class="st2" width="5" height="5"/>
		<rect x="11.9" y="26.4" class="st2" width="5" height="5"/>
		<rect x="16.9" y="26.4" class="st2" width="5" height="5"/>
		<rect x="21.9" y="26.4" class="st2" width="5" height="5"/>
		<rect x="26.9" y="26.4" class="st2" width="5" height="5"/>
		<rect x="31.9" y="26.4" class="st2" width="5" height="5"/>
		<rect x="36.9" y="26.4" class="st2" width="5" height="5"/>
		<rect x="41.9" y="26.4" class="st2" width="5" height="5"/>
		<rect x="46.9" y="26.4" class="st2" width="5" height="5"/>
		<rect x="51.9" y="26.4" class="st2" width="5" height="5"/>
		<rect x="56.9" y="26.4" class="st2" width="5" height="5"/>
		<rect x="61.9" y="26.4" class="st2" width="5" height="5"/>
		<rect x="66.9" y="26.4" class="st2" width="5" height="5"/>
		<rect x="71.9" y="26.4" class="st2" width="5" height="5"/>
		<rect x="76.9" y="26.4" class="st2" width="5" height="5"/>
		<rect x="81.9" y="26.4" class="st2" width="5" height="5"/>
		<rect x="86.9" y="26.4" class="st2" width="5" height="5"/>
		<rect x="91.9" y="26.4" class="st2" width="5" height="5"/>
		<rect x="96.9" y="26.4" class="st2" width="5" height="5"/>
		<rect x="101.9" y="26.4" class="st2" width="5" height="5"/>
		<rect x="11.9" y="31.4" class="st2" width="5" height="5"/>
		<rect x="16.9" y="31.4" class="st2" width="5" height="5"/>
		<rect x="21.9" y="31.4" class="st2" width="5" height="5"/>
		<rect x="26.9" y="31.4" class="st2" width="5" height="5"/>
		<rect x="31.9" y="31.4" class="st2" width="5" height="5"/>
		<rect x="36.9" y="31.4" class="st2" width="5" height="5"/>
		<rect x="41.9" y="31.4" class="st2" width="5" height="5"/>
		<rect x="46.9" y="31.4" class="st2" width="5" height="5"/>
		<rect x="51.9" y="31.4" class="st2" width="5" height="5"/>
		<rect x="56.9" y="31.4" class="st2" width="5" height="5"/>
		<rect x="61.9" y="31.4" class="st2" width="5" height="5"/>
		<rect x="66.9" y="31.4" class="st2" width="5" height="5"/>
		<rect x="71.9" y="31.4" class="st2" width="5" height="5"/>
		<rect x="76.9" y="31.4" class="st2" width="5" height="5"/>
		<rect x="81.9" y="31.4" class="st2" width="5" height="5"/>
		<rect x="86.9" y="31.4" class="st2" width="5" height="5"/>
		<rect x="91.9" y="31.4" class="st2" width="5" height="5"/>
		<rect x="96.9" y="31.4" class="st2" width="5" height="5"/>
		<rect x="101.9" y="31.4" class="st2" width="5" height="5"/>
		<rect x="11.9" y="36.4" class="st2" width="5" height="5"/>
		<rect x="16.9" y="36.4" class="st2" width="5" height="5"/>
		<rect x="21.9" y="36.4" class="st2" width="5" height="5"/>
		<rect x="26.9" y="36.4" class="st2" width="5" height="5"/>
		<rect x="31.9" y="36.4" class="st2" width="5" height="5"/>
		<rect x="36.9" y="36.4" class="st2" width="5" height="5"/>
		<rect x="41.9" y="36.4" class="st2" width="5" height="5"/>
		<rect x="46.9" y="36.4" class="st2" width="5" height="5"/>
		<rect x="51.9" y="36.4" class="st2" width="5" height="5"/>
		<rect x="56.9" y="36.4" class="st2" width="5" height="5"/>
		<rect x="61.9" y="36.4" class="st2" width="5" height="5"/>
		<rect x="66.9" y="36.4" class="st2" width="5" height="5"/>
		<rect x="71.9" y="36.4" class="st2" width="5" height="5"/>
		<rect x="76.9" y="36.4" class="st2" width="5" height="5"/>
		<rect x="81.9" y="36.4" class="st2" width="5" height="5"/>
		<rect x="86.9" y="36.4" class="st2" width="5" height="5"/>
		<rect x="91.9" y="36.4" class="st2" width="5" height="5"/>
		<rect x="96.9" y="36.4" class="st2" width="5" height="5"/>
		<rect x="101.9" y="36.4" class="st2" width="5" height="5"/>
		<rect x="11.9" y="41.4" class="st2" width="5" height="5"/>
		<rect x="16.9" y="41.4" class="st2" width="5" height="5"/>
		<rect x="21.9" y="41.4" class="st2" width="5" height="5"/>
		<rect x="26.9" y="41.4" class="st2" width="5" height="5"/>
		<rect x="31.9" y="41.4" class="st2" width="5" height="5"/>
		<rect x="36.9" y="41.4" class="st2" width="5" height="5"/>
		<rect x="41.9" y="41.4" class="st2" width="5" height="5"/>
		<rect x="46.9" y="41.4" class="st2" width="5" height="5"/>
		<rect x="51.9" y="41.4" class="st2" width="5" height="5"/>
		<rect x="56.9" y="41.4" class="st2" width="5" height="5"/>
		<rect x="61.9" y="41.4" class="st2" width="5" height="5"/>
		<rect x="66.9" y="41.4" class="st2" width="5" height="5"/>
		<rect x="71.9" y="41.4" class="st2" width="5" height="5"/>
		<rect x="76.9" y="41.4" class="st2" width="5" height="5"/>
		<rect x="81.9" y="41.4" class="st2" width="5" height="5"/>
		<rect x="86.9" y="41.4" class="st2" width="5" height="5"/>
		<rect x="91.9" y="41.4" class="st2" width="5" height="5"/>
		<rect x="96.9" y="41.4" class="st2" width="5" height="5"/>
		<rect x="101.9" y="41.4" class="st2" width="5" height="5"/>
		<rect x="11.9" y="46.4" class="st2" width="5" height="5"/>
		<rect x="16.9" y="46.4" class="st2" width="5" height="5"/>
		<rect x="21.9" y="46.4" class="st2" width="5" height="5"/>
		<rect x="26.9" y="46.4" class="st2" width="5" height="5"/>
		<rect x="31.9" y="46.4" class="st2" width="5" height="5"/>
		<rect x="36.9" y="46.4" class="st2" width="5" height="5"/>
		<rect x="41.9" y="46.4" class="st2" width="5" height="5"/>
		<rect x="46.9" y="46.4" class="st2" width="5" height="5"/>
		<rect x="51.9" y="46.4" class="st2" width="5" height="5"/>
		<rect x="56.9" y="46.4" class="st2" width="5" height="5"/>
		<rect x="61.9" y="46.4" class="st2" width="5" height="5"/>
		<rect x="66.9" y="46.4" class="st2" width="5" height="5"/>
		<rect x="71.9" y="46.4" class="st2" width="5" height="5"/>
		<rect x="76.9" y="46.4" class="st2" width="5" height="5"/>
		<rect x="81.9" y="46.4" class="st2" width="5" height="5"/>
		<rect x="86.9" y="46.4" class="st2" width="5" height="5"/>
		<rect x="91.9" y="46.4" class="st2" width="5" height="5"/>
		<rect x="96.9" y="46.4" class="st2" width="5" height="5"/>
		<rect x="101.9" y="46.4" class="st2" width="5" height="5"/>
		<rect x="11.9" y="51.4" class="st2" width="5" height="5"/>
		<rect x="16.9" y="51.4" class="st2" width="5" height="5"/>
		<rect x="21.9" y="51.4" class="st2" width="5" height="5"/>
		<rect x="26.9" y="51.4" class="st2" width="5" height="5"/>
		<rect x="31.9" y="51.4" class="st2" width="5" height="5"/>
		<rect x="36.9" y="51.4" class="st2" width="5" height="5"/>
		<rect x="41.9" y="51.4" class="st2" width="5" height="5"/>
		<rect x="46.9" y="51.4" class="st2" width="5" height="5"/>
		<rect x="51.9" y="51.4" class="st2" width="5" height="5"/>
		<rect x="56.9" y="51.4" class="st2" width="5" height="5"/>
		<rect x="61.9" y="51.4" class="st2" width="5" height="5"/>
		<rect x="66.9" y="51.4" class="st2" width="5" height="5"/>
		<rect x="71.9" y="51.4" class="st2" width="5" height="5"/>
		<rect x="76.9" y="51.4" class="st2" width="5" height="5"/>
		<rect x="81.9" y="51.4" class="st2" width="5" height="5"/>
		<rect x="86.9" y="51.4" class="st2" width="5" height="5"/>
		<rect x="91.9" y="51.4" class="st2" width="5" height="5"/>
		<rect x="96.9" y="51.4" class="st2" width="5" height="5"/>
		<rect x="101.9" y="51.4" class="st2" width="5" height="5"/>
		<rect x="11.9" y="56.4" class="st2" width="5" height="5"/>
		<rect x="16.9" y="56.4" class="st2" width="5" height="5"/>
		<rect x="21.9" y="56.4" class="st2" width="5" height="5"/>
		<rect x="26.9" y="56.4" class="st2" width="5" height="5"/>
		<rect x="31.9" y="56.4" class="st2" width="5" height="5"/>
		<rect x="36.9" y="56.4" class="st2" width="5" height="5"/>
		<rect x="41.9" y="56.4" class="st2" width="5" height="5"/>
		<rect x="46.9" y="56.4" class="st2" width="5" height="5"/>
		<rect x="51.9" y="56.4" class="st2" width="5" height="5"/>
		<rect x="56.9" y="56.4" class="st2" width="5" height="5"/>
		<rect x="61.9" y="56.4" class="st2" width="5" height="5"/>
		<rect x="66.9" y="56.4" class="st2" width="5" height="5"/>
		<rect x="71.9" y="56.4" class="st2" width="5" height="5"/>
		<rect x="76.9" y="56.4" class="st2" width="5" height="5"/>
		<rect x="81.9" y="56.4" class="st2" width="5" height="5"/>
		<rect x="86.9" y="56.4" class="st2" width="5" height="5"/>
		<rect x="91.9" y="56.4" class="st2" width="5" height="5"/>
		<rect x="96.9" y="56.4" class="st2" width="5" height="5"/>
		<rect x="101.9" y="56.4" class="st2" width="5" height="5"/>
		<rect x="11.9" y="61.4" class="st2" width="5" height="5"/>
		<rect x="16.9" y="61.4" class="st2" width="5" height="5"/>
		<rect x="21.9" y="61.4" class="st2" width="5" height="5"/>
		<rect x="26.9" y="61.4" class="st2" width="5" height="5"/>
		<rect x="31.9" y="61.4" class="st2" width="5" height="5"/>
		<rect x="36.9" y="61.4" class="st2" width="5" height="5"/>
		<rect x="41.9" y="61.4" class="st2" width="5" height="5"/>
		<rect x="46.9" y="61.4" class="st2" width="5" height="5"/>
		<rect x="51.9" y="61.4" class="st2" width="5" height="5"/>
		<rect x="56.9" y="61.4" class="st2" width="5" height="5"/>
		<rect x="61.9" y="61.4" class="st2" width="5" height="5"/>
		<rect x="66.9" y="61.4" class="st2" width="5" height="5"/>
		<rect x="71.9" y="61.4" class="st2" width="5" height="5"/>
		<rect x="76.9" y="61.4" class="st2" width="5" height="5"/>
		<rect x="81.9" y="61.4" class="st2" width="5" height="5"/>
		<rect x="86.9" y="61.4" class="st2" width="5" height="5"/>
		<rect x="91.9" y="61.4" class="st2" width="5" height="5"/>
		<rect x="96.9" y="61.4" class="st2" width="5" height="5"/>
		<rect x="101.9" y="61.4" class="st2" width="5" height="5"/>
		<rect x="11.9" y="66.4" class="st2" width="5" height="5"/>
		<rect x="16.9" y="66.4" class="st2" width="5" height="5"/>
		<rect x="21.9" y="66.4" class="st2" width="5" height="5"/>
		<rect x="26.9" y="66.4" class="st2" width="5" height="5"/>
		<rect x="31.9" y="66.4" class="st2" width="5" height="5"/>
		<rect x="36.9" y="66.4" class="st2" width="5" height="5"/>
		<rect x="41.9" y="66.4" class="st2" width="5" height="5"/>
		<rect x="46.9" y="66.4" class="st2" width="5" height="5"/>
		<rect x="51.9" y="66.4" class="st2" width="5" height="5"/>
		<rect x="56.9" y="66.4" class="st2" width="5" height="5"/>
		<rect x="61.9" y="66.4" class="st2" width="5" height="5"/>
		<rect x="66.9" y="66.4" class="st2" width="5" height="5"/>
		<rect x="71.9" y="66.4" class="st2" width="5" height="5"/>
		<rect x="76.9" y="66.4" class="st2" width="5" height="5"/>
		<rect x="81.9" y="66.4" class="st2" width="5" height="5"/>
		<rect x="86.9" y="66.4" class="st2" width="5" height="5"/>
		<rect x="91.9" y="66.4" class="st2" width="5" height="5"/>
		<rect x="96.9" y="66.4" class="st2" width="5" height="5"/>
		<rect x="101.9" y="66.4" class="st2" width="5" height="5"/>
		<rect x="11.9" y="71.4" class="st2" width="5" height="5"/>
		<rect x="16.9" y="71.4" class="st2" width="5" height="5"/>
		<rect x="21.9" y="71.4" class="st2" width="5" height="5"/>
		<rect x="26.9" y="71.4" class="st2" width="5" height="5"/>
		<rect x="31.9" y="71.4" class="st2" width="5" height="5"/>
		<rect x="36.9" y="71.4" class="st2" width="5" height="5"/>
		<rect x="41.9" y="71.4" class="st2" width="5" height="5"/>
		<rect x="46.9" y="71.4" class="st2" width="5" height="5"/>
		<rect x="51.9" y="71.4" class="st2" width="5" height="5"/>
		<rect x="56.9" y="71.4" class="st2" width="5" height="5"/>
		<rect x="61.9" y="71.4" class="st2" width="5" height="5"/>
		<rect x="66.9" y="71.4" class="st2" width="5" height="5"/>
		<rect x="71.9" y="71.4" class="st2" width="5" height="5"/>
		<rect x="76.9" y="71.4" class="st2" width="5" height="5"/>
		<rect x="81.9" y="71.4" class="st2" width="5" height="5"/>
		<rect x="86.9" y="71.4" class="st2" width="5" height="5"/>
		<rect x="91.9" y="71.4" class="st2" width="5" height="5"/>
		<rect x="96.9" y="71.4" class="st2" width="5" height="5"/>
		<rect x="101.9" y="71.4" class="st2" width="5" height="5"/>
		<rect x="11.9" y="76.4" class="st2" width="5" height="5"/>
		<rect x="16.9" y="76.4" class="st2" width="5" height="5"/>
		<rect x="21.9" y="76.4" class="st2" width="5" height="5"/>
		<rect x="26.9" y="76.4" class="st2" width="5" height="5"/>
		<rect x="31.9" y="76.4" class="st2" width="5" height="5"/>
		<rect x="36.9" y="76.4" class="st2" width="5" height="5"/>
		<rect x="41.9" y="76.4" class="st2" width="5" height="5"/>
		<rect x="46.9" y="76.4" class="st2" width="5" height="5"/>
		<rect x="51.9" y="76.4" class="st2" width="5" height="5"/>
		<rect x="56.9" y="76.4" class="st2" width="5" height="5"/>
		<rect x="61.9" y="76.4" class="st2" width="5" height="5"/>
		<rect x="66.9" y="76.4" class="st2" width="5" height="5"/>
		<rect x="71.9" y="76.4" class="st2" width="5" height="5"/>
		<rect x="76.9" y="76.4" class="st2" width="5" height="5"/>
		<rect x="81.9" y="76.4" class="st2" width="5" height="5"/>
		<rect x="86.9" y="76.4" class="st2" width="5" height="5"/>
		<rect x="91.9" y="76.4" class="st2" width="5" height="5"/>
		<rect x="96.9" y="76.4" class="st2" width="5" height="5"/>
		<rect x="101.9" y="76.4" class="st2" width="5" height="5"/>
		<rect x="11.9" y="81.4" class="st2" width="5" height="5"/>
		<rect x="16.9" y="81.4" class="st2" width="5" height="5"/>
		<rect x="21.9" y="81.4" class="st2" width="5" height="5"/>
		<rect x="26.9" y="81.4" class="st2" width="5" height="5"/>
		<rect x="31.9" y="81.4" class="st2" width="5" height="5"/>
		<rect x="36.9" y="81.4" class="st2" width="5" height="5"/>
		<rect x="41.9" y="81.4" class="st2" width="5" height="5"/>
		<rect x="46.9" y="81.4" class="st2" width="5" height="5"/>
		<rect x="51.9" y="81.4" class="st2" width="5" height="5"/>
		<rect x="56.9" y="81.4" class="st2" width="5" height="5"/>
		<rect x="61.9" y="81.4" class="st2" width="5" height="5"/>
		<rect x="66.9" y="81.4" class="st2" width="5" height="5"/>
		<rect x="71.9" y="81.4" class="st2" width="5" height="5"/>
		<rect x="76.9" y="81.4" class="st2" width="5" height="5"/>
		<rect x="81.9" y="81.4" class="st2" width="5" height="5"/>
		<rect x="86.9" y="81.4" class="st2" width="5" height="5"/>
		<rect x="91.9" y="81.4" class="st2" width="5" height="5"/>
		<rect x="96.9" y="81.4" class="st2" width="5" height="5"/>
		<rect x="101.9" y="81.4" class="st2" width="5" height="5"/>
		<rect x="11.9" y="86.4" class="st2" width="5" height="5"/>
		<rect x="16.9" y="86.4" class="st2" width="5" height="5"/>
		<rect x="21.9" y="86.4" class="st2" width="5" height="5"/>
		<rect x="26.9" y="86.4" class="st2" width="5" height="5"/>
		<rect x="31.9" y="86.4" class="st2" width="5" height="5"/>
		<rect x="36.9" y="86.4" class="st2" width="5" height="5"/>
		<rect x="41.9" y="86.4" class="st2" width="5" height="5"/>
		<rect x="46.9" y="86.4" class="st2" width="5" height="5"/>
		<rect x="51.9" y="86.4" class="st2" width="5" height="5"/>
		<rect x="56.9" y="86.4" class="st2" width="5" height="5"/>
		<rect x="61.9" y="86.4" class="st2" width="5" height="5"/>
		<rect x="66.9" y="86.4" class="st2" width="5" height="5"/>
		<rect x="71.9" y="86.4" class="st2" width="5" height="5"/>
		<rect x="76.9" y="86.4" class="st2" width="5" height="5"/>
		<rect x="81.9" y="86.4" class="st2" width="5" height="5"/>
		<rect x="86.9" y="86.4" class="st2" width="5" height="5"/>
		<rect x="91.9" y="86.4" class="st2" width="5" height="5"/>
		<rect x="96.9" y="86.4" class="st2" width="5" height="5"/>
		<rect x="101.9" y="86.4" class="st2" width="5" height="5"/>
		<rect x="11.9" y="91.4" class="st2" width="5" height="5"/>
		<rect x="16.9" y="91.4" class="st2" width="5" height="5"/>
		<rect x="21.9" y="91.4" class="st2" width="5" height="5"/>
		<rect x="26.9" y="91.4" class="st2" width="5" height="5"/>
		<rect x="31.9" y="91.4" class="st2" width="5" height="5"/>
		<rect x="36.9" y="91.4" class="st2" width="5" height="5"/>
		<rect x="41.9" y="91.4" class="st2" width="5" height="5"/>
		<rect x="46.9" y="91.4" class="st2" width="5" height="5"/>
		<rect x="51.9" y="91.4" class="st2" width="5" height="5"/>
		<rect x="56.9" y="91.4" class="st2" width="5" height="5"/>
		<rect x="61.9" y="91.4" class="st2" width="5" height="5"/>
		<rect x="66.9" y="91.4" class="st2" width="5" height="5"/>
		<rect x="71.9" y="91.4" class="st2" width="5" height="5"/>
		<rect x="76.9" y="91.4" class="st2" width="5" height="5"/>
		<rect x="81.9" y="91.4" class="st2" width="5" height="5"/>
		<rect x="86.9" y="91.4" class="st2" width="5" height="5"/>
		<rect x="91.9" y="91.4" class="st2" width="5" height="5"/>
		<rect x="96.9" y="91.4" class="st2" width="5" height="5"/>
		<rect x="101.9" y="91.4" class="st2" width="5" height="5"/>
		<rect x="11.9" y="96.4" class="st2" width="5" height="5"/>
		<rect x="16.9" y="96.4" class="st2" width="5" height="5"/>
		<rect x="21.9" y="96.4" class="st2" width="5" height="5"/>
		<rect x="26.9" y="96.4" class="st2" width="5" height="5"/>
		<rect x="31.9" y="96.4" class="st2" width="5" height="5"/>
		<rect x="36.9" y="96.4" class="st2" width="5" height="5"/>
		<rect x="41.9" y="96.4" class="st2" width="5" height="5"/>
		<rect x="46.9" y="96.4" class="st2" width="5" height="5"/>
		<rect x="51.9" y="96.4" class="st2" width="5" height="5"/>
		<rect x="56.9" y="96.4" class="st2" width="5" height="5"/>
		<rect x="61.9" y="96.4" class="st2" width="5" height="5"/>
		<rect x="66.9" y="96.4" class="st2" width="5" height="5"/>
		<rect x="71.9" y="96.4" class="st2" width="5" height="5"/>
		<rect x="76.9" y="96.4" class="st2" width="5" height="5"/>
		<rect x="81.9" y="96.4" class="st2" width="5" height="5"/>
		<rect x="86.9" y="96.4" class="st2" width="5" height="5"/>
		<rect x="91.9" y="96.4" class="st2" width="5" height="5"/>
		<rect x="96.9" y="96.4" class="st2" width="5" height="5"/>
		<rect x="101.9" y="96.4" class="st2" width="5" height="5"/>
		<rect x="11.9" y="101.4" class="st2" width="5" height="5"/>
		<rect x="16.9" y="101.4" class="st2" width="5" height="5"/>
		<rect x="21.9" y="101.4" class="st2" width="5" height="5"/>
		<rect x="26.9" y="101.4" class="st2" width="5" height="5"/>
		<rect x="31.9" y="101.4" class="st2" width="5" height="5"/>
		<rect x="36.9" y="101.4" class="st2" width="5" height="5"/>
		<rect x="41.9" y="101.4" class="st2" width="5" height="5"/>
		<rect x="46.9" y="101.4" class="st2" width="5" height="5"/>
		<rect x="51.9" y="101.4" class="st2" width="5" height="5"/>
		<rect x="56.9" y="101.4" class="st2" width="5" height="5"/>
		<rect x="61.9" y="101.4" class="st2" width="5" height="5"/>
		<rect x="66.9" y="101.4" class="st2" width="5" height="5"/>
		<rect x="71.9" y="101.4" class="st2" width="5" height="5"/>
		<rect x="76.9" y="101.4" class="st2" width="5" height="5"/>
		<rect x="81.9" y="101.4" class="st2" width="5" height="5"/>
		<rect x="86.9" y="101.4" class="st2" width="5" height="5"/>
		<rect x="91.9" y="101.4" class="st2" width="5" height="5"/>
		<rect x="96.9" y="101.4" class="st2" width="5" height="5"/>
		<rect x="101.9" y="101.4" class="st2" width="5" height="5"/>
	</g>
</g>
<g id="Tools-Processes-Performance_2color-light_bk">
	<g id="Automated_Management">
		<path class="st3" d="M85,40.1L85,40.1c0.8,0,1.3-0.5,1.3-1.3c0-0.8-0.5-1.2-1.2-1.2c-0.7,0-1.3,0.5-1.3,1.3
			C83.7,39.6,84.2,40.1,85,40.1z"/>
		<path class="st3" d="M80,40.1L80,40.1c0.8,0,1.3-0.5,1.3-1.3c0-0.8-0.5-1.2-1.2-1.2c-0.7,0-1.3,0.5-1.3,1.3
			C78.7,39.6,79.2,40.1,80,40.1z"/>
		<path class="st3" d="M75,40.1L75,40.1c0.8,0,1.3-0.5,1.3-1.3c0-0.8-0.5-1.2-1.2-1.2c-0.7,0-1.3,0.5-1.3,1.3
			C73.7,39.6,74.2,40.1,75,40.1z"/>
		<path class="st3" d="M75.6,88.5H14.9v-55h75v10.9H19.2v2.5h70.7v25.8c0.6-0.3,1.3-0.4,2-0.4h0.5V31h-80v60h63.2V88.5z"/>
		<path class="st4" d="M107.1,92.8c-0.2,0-0.6,0.2-1.3,0.4c-0.5,0.1-0.9,0.2-1.3,0.3c-0.1,0.2-0.3,0.7-0.6,1.4
			c-0.2,0.6-0.5,1.1-0.7,1.3c0.1,0.1,0.3,0.5,0.7,1.2c0.3,0.5,0.5,0.9,0.7,1.1c-0.2,0.4-1.2,1.4-2.9,3.1c-0.8-0.4-1.6-0.9-2.4-1.4
			c-0.9,0.5-1.8,0.9-2.6,1c-0.2,0.3-0.3,0.7-0.5,1.4c-0.2,0.7-0.3,1.2-0.4,1.4h-4.1c-0.1-0.3-0.3-0.7-0.4-1.3
			c-0.1-0.6-0.3-1.1-0.4-1.4c-1.6-0.7-2.5-1.1-2.5-1.2c-0.4,0.1-0.8,0.3-1.3,0.6c-0.6,0.3-0.9,0.6-1.2,0.7c-0.4-0.2-1.3-1.2-3-2.8
			c0.1-0.3,0.5-1.1,1.3-2.4c0-0.1-0.2-0.6-0.6-1.3c-0.2-0.5-0.4-1-0.4-1.5c-0.4,0-0.8-0.1-1.4-0.3c-0.6-0.2-1.1-0.3-1.3-0.4v-4.2
			c0.2,0,0.6-0.2,1.3-0.4c0.5-0.1,0.9-0.2,1.3-0.3c0.1-0.2,0.3-0.7,0.6-1.4c0.2-0.6,0.5-1,0.7-1.3c-0.6-1.2-1.1-2-1.4-2.3
			c0.2-0.4,1.2-1.4,3-3.1c1.1,0.5,1.9,1,2.4,1.4c1.5-0.7,2.4-1,2.7-1c0-0.2,0.2-0.6,0.4-1.4c0.1-0.6,0.3-1,0.4-1.4H96
			c0.1,0.4,0.4,1.3,0.8,2.7c0.2,0.1,0.6,0.2,1.3,0.5c0.6,0.2,1,0.4,1.2,0.6c0.4-0.1,0.8-0.3,1.2-0.6c0.6-0.3,1-0.6,1.2-0.7
			c0.4,0.3,1,0.7,1.6,1.4c0.7,0.7,1.2,1.2,1.5,1.4c-0.6,1.1-1.1,1.9-1.4,2.4c0.7,2,1,3,1,2.8c0.4,0,0.8,0.1,1.4,0.3
			c0.6,0.2,1.1,0.3,1.3,0.4V92.8z M101.2,94.6c0.8-1.6,1.2-3.1,1-4.7c-0.1-1.4-0.6-2.8-1.5-4c-0.9-1.2-1.9-2.1-3.3-2.7
			c-1.3-0.6-2.7-0.9-4.2-0.8c-2.1,0.2-3.8,0.9-5.1,2.2c-1.2,1.2-2,2.7-2.3,4.5c-0.3,1.7-0.1,3.4,0.6,5c0.7,1.7,1.9,3,3.4,3.8
			c2.1,1.1,4.2,1.3,6.6,0.6C98.6,97.8,100.2,96.5,101.2,94.6z"/>
		<polygon class="st4" points="30.5,73 37.6,66 40.6,69 42.2,63 43.9,57.1 37.8,58.7 31.8,60.3 34.8,63.3 27.7,70.3 		"/>
	</g>
</g>
</svg>
