<?xml version="1.0" encoding="utf-8"?>
<!-- Generator: Adobe Illustrator 25.1.0, SVG Export Plug-In . SVG Version: 6.00 Build 0)  -->
<!DOCTYPE svg PUBLIC "-//W3C//DTD SVG 1.1//EN" "http://www.w3.org/Graphics/SVG/1.1/DTD/svg11.dtd" [
	<!ENTITY st0 "display:none;">
	<!ENTITY st1 "display:inline;">
	<!ENTITY st2 "fill:#FFFFFF;stroke:#EC008C;stroke-width:0.1;stroke-miterlimit:10;">
	<!ENTITY st3 "fill:#1D428A;">
]>
<svg version="1.1" xmlns="http://www.w3.org/2000/svg" xmlns:xlink="http://www.w3.org/1999/xlink" x="0px" y="0px"
	 viewBox="0 0 120 120" style="enable-background:new 0 0 120 120;" xml:space="preserve">
<title>Public Cloud</title>
<metadata><?xpacket begin="﻿" id="W5M0MpCehiHzreSzNTczkc9d"?>
<x:xmpmeta xmlns:x="adobe:ns:meta/" x:xmptk="Adobe XMP Core 6.0-c002 79.164488, 2020/07/10-22:06:53        ">
   <rdf:RDF xmlns:rdf="http://www.w3.org/1999/02/22-rdf-syntax-ns#">
      <rdf:Description rdf:about=""
            xmlns:xmp="http://ns.adobe.com/xap/1.0/"
            xmlns:xmpMM="http://ns.adobe.com/xap/1.0/mm/"
            xmlns:stEvt="http://ns.adobe.com/xap/1.0/sType/ResourceEvent#"
            xmlns:dc="http://purl.org/dc/elements/1.1/"
            xmlns:lr="http://ns.adobe.com/lightroom/1.0/">
         <xmp:MetadataDate>2021-01-27T15:45:48-06:00</xmp:MetadataDate>
         <xmpMM:InstanceID>xmp.iid:dd126856-ee1f-4141-b266-bc305fbde6b0</xmpMM:InstanceID>
         <xmpMM:DocumentID>xmp.did:e00017d9-9494-4884-83a6-53faa22029c6</xmpMM:DocumentID>
         <xmpMM:OriginalDocumentID>xmp.did:e00017d9-9494-4884-83a6-53faa22029c6</xmpMM:OriginalDocumentID>
         <xmpMM:History>
            <rdf:Seq>
               <rdf:li>
                  <rdf:Description>
                     <stEvt:action>saved</stEvt:action>
                     <stEvt:instanceID>xmp.iid:e00017d9-9494-4884-83a6-53faa22029c6</stEvt:instanceID>
                     <stEvt:when>2021-01-27T14:49:20-06:00</stEvt:when>
                     <stEvt:softwareAgent>Adobe Bridge 2021 (Macintosh)</stEvt:softwareAgent>
                     <stEvt:changed>/metadata</stEvt:changed>
                  </rdf:Description>
               </rdf:li>
               <rdf:li>
                  <rdf:Description>
                     <stEvt:action>saved</stEvt:action>
                     <stEvt:instanceID>xmp.iid:dd126856-ee1f-4141-b266-bc305fbde6b0</stEvt:instanceID>
                     <stEvt:when>2021-01-27T15:45:48-06:00</stEvt:when>
                     <stEvt:softwareAgent>Adobe Bridge 2021 (Macintosh)</stEvt:softwareAgent>
                     <stEvt:changed>/metadata</stEvt:changed>
                  </rdf:Description>
               </rdf:li>
            </rdf:Seq>
         </xmpMM:History>
         <dc:subject>
            <rdf:Bag>
               <rdf:li>Icon</rdf:li>
               <rdf:li>2-Color</rdf:li>
               <rdf:li>Light Background</rdf:li>
               <rdf:li>Public Cloud</rdf:li>
               <rdf:li>Cloud</rdf:li>
               <rdf:li>Clouds</rdf:li>
            </rdf:Bag>
         </dc:subject>
         <dc:title>
            <rdf:Alt>
               <rdf:li xml:lang="x-default">Public Cloud</rdf:li>
            </rdf:Alt>
         </dc:title>
         <lr:hierarchicalSubject>
            <rdf:Bag>
               <rdf:li>Color[JW2]|2-Color</rdf:li>
               <rdf:li>Color[JW2]|Light Background</rdf:li>
               <rdf:li>Virtual Cloud Network|Public Cloud</rdf:li>
               <rdf:li>General[JW1]|Cloud</rdf:li>
               <rdf:li>Category names|Clouds</rdf:li>
            </rdf:Bag>
         </lr:hierarchicalSubject>
      </rdf:Description>
   </rdf:RDF>
</x:xmpmeta>
                                                                                                    
                                                                                                    
                                                                                                    
                                                                                                    
                                                                                                    
                                                                                                    
                                                                                                    
                                                                                                    
                                                                                                    
        
<?xpacket end="w"?></metadata>
<g id="Template" style="&st0;">
	<g style="&st1;">
		<rect x="12.3" y="12.2" style="&st2;" width="5" height="5"/>
		<rect x="17.3" y="12.2" style="&st2;" width="5" height="5"/>
		<rect x="22.3" y="12.2" style="&st2;" width="5" height="5"/>
		<rect x="27.3" y="12.2" style="&st2;" width="5" height="5"/>
		<rect x="32.3" y="12.2" style="&st2;" width="5" height="5"/>
		<rect x="37.3" y="12.2" style="&st2;" width="5" height="5"/>
		<rect x="42.3" y="12.2" style="&st2;" width="5" height="5"/>
		<rect x="47.3" y="12.2" style="&st2;" width="5" height="5"/>
		<rect x="52.3" y="12.2" style="&st2;" width="5" height="5"/>
		<rect x="57.3" y="12.2" style="&st2;" width="5" height="5"/>
		<rect x="62.3" y="12.2" style="&st2;" width="5" height="5"/>
		<rect x="67.3" y="12.2" style="&st2;" width="5" height="5"/>
		<rect x="72.3" y="12.2" style="&st2;" width="5" height="5"/>
		<rect x="77.3" y="12.2" style="&st2;" width="5" height="5"/>
		<rect x="82.3" y="12.2" style="&st2;" width="5" height="5"/>
		<rect x="87.3" y="12.2" style="&st2;" width="5" height="5"/>
		<rect x="92.3" y="12.2" style="&st2;" width="5" height="5"/>
		<rect x="97.3" y="12.2" style="&st2;" width="5" height="5"/>
		<rect x="102.3" y="12.2" style="&st2;" width="5" height="5"/>
		<rect x="12.3" y="17.2" style="&st2;" width="5" height="5"/>
		<rect x="17.3" y="17.2" style="&st2;" width="5" height="5"/>
		<rect x="22.3" y="17.2" style="&st2;" width="5" height="5"/>
		<rect x="27.3" y="17.2" style="&st2;" width="5" height="5"/>
		<rect x="32.3" y="17.2" style="&st2;" width="5" height="5"/>
		<rect x="37.3" y="17.2" style="&st2;" width="5" height="5"/>
		<rect x="42.3" y="17.2" style="&st2;" width="5" height="5"/>
		<rect x="47.3" y="17.2" style="&st2;" width="5" height="5"/>
		<rect x="52.3" y="17.2" style="&st2;" width="5" height="5"/>
		<rect x="57.3" y="17.2" style="&st2;" width="5" height="5"/>
		<rect x="62.3" y="17.2" style="&st2;" width="5" height="5"/>
		<rect x="67.3" y="17.2" style="&st2;" width="5" height="5"/>
		<rect x="72.3" y="17.2" style="&st2;" width="5" height="5"/>
		<rect x="77.3" y="17.2" style="&st2;" width="5" height="5"/>
		<rect x="82.3" y="17.2" style="&st2;" width="5" height="5"/>
		<rect x="87.3" y="17.2" style="&st2;" width="5" height="5"/>
		<rect x="92.3" y="17.2" style="&st2;" width="5" height="5"/>
		<rect x="97.3" y="17.2" style="&st2;" width="5" height="5"/>
		<rect x="102.3" y="17.2" style="&st2;" width="5" height="5"/>
		<rect x="12.3" y="22.2" style="&st2;" width="5" height="5"/>
		<rect x="17.3" y="22.2" style="&st2;" width="5" height="5"/>
		<rect x="22.3" y="22.2" style="&st2;" width="5" height="5"/>
		<rect x="27.3" y="22.2" style="&st2;" width="5" height="5"/>
		<rect x="32.3" y="22.2" style="&st2;" width="5" height="5"/>
		<rect x="37.3" y="22.2" style="&st2;" width="5" height="5"/>
		<rect x="42.3" y="22.2" style="&st2;" width="5" height="5"/>
		<rect x="47.3" y="22.2" style="&st2;" width="5" height="5"/>
		<rect x="52.3" y="22.2" style="&st2;" width="5" height="5"/>
		<rect x="57.3" y="22.2" style="&st2;" width="5" height="5"/>
		<rect x="62.3" y="22.2" style="&st2;" width="5" height="5"/>
		<rect x="67.3" y="22.2" style="&st2;" width="5" height="5"/>
		<rect x="72.3" y="22.2" style="&st2;" width="5" height="5"/>
		<rect x="77.3" y="22.2" style="&st2;" width="5" height="5"/>
		<rect x="82.3" y="22.2" style="&st2;" width="5" height="5"/>
		<rect x="87.3" y="22.2" style="&st2;" width="5" height="5"/>
		<rect x="92.3" y="22.2" style="&st2;" width="5" height="5"/>
		<rect x="97.3" y="22.2" style="&st2;" width="5" height="5"/>
		<rect x="102.3" y="22.2" style="&st2;" width="5" height="5"/>
		<rect x="12.3" y="27.2" style="&st2;" width="5" height="5"/>
		<rect x="17.3" y="27.2" style="&st2;" width="5" height="5"/>
		<rect x="22.3" y="27.2" style="&st2;" width="5" height="5"/>
		<rect x="27.3" y="27.2" style="&st2;" width="5" height="5"/>
		<rect x="32.3" y="27.2" style="&st2;" width="5" height="5"/>
		<rect x="37.3" y="27.2" style="&st2;" width="5" height="5"/>
		<rect x="42.3" y="27.2" style="&st2;" width="5" height="5"/>
		<rect x="47.3" y="27.2" style="&st2;" width="5" height="5"/>
		<rect x="52.3" y="27.2" style="&st2;" width="5" height="5"/>
		<rect x="57.3" y="27.2" style="&st2;" width="5" height="5"/>
		<rect x="62.3" y="27.2" style="&st2;" width="5" height="5"/>
		<rect x="67.3" y="27.2" style="&st2;" width="5" height="5"/>
		<rect x="72.3" y="27.2" style="&st2;" width="5" height="5"/>
		<rect x="77.3" y="27.2" style="&st2;" width="5" height="5"/>
		<rect x="82.3" y="27.2" style="&st2;" width="5" height="5"/>
		<rect x="87.3" y="27.2" style="&st2;" width="5" height="5"/>
		<rect x="92.3" y="27.2" style="&st2;" width="5" height="5"/>
		<rect x="97.3" y="27.2" style="&st2;" width="5" height="5"/>
		<rect x="102.3" y="27.2" style="&st2;" width="5" height="5"/>
		<rect x="12.3" y="32.2" style="&st2;" width="5" height="5"/>
		<rect x="17.3" y="32.2" style="&st2;" width="5" height="5"/>
		<rect x="22.3" y="32.2" style="&st2;" width="5" height="5"/>
		<rect x="27.3" y="32.2" style="&st2;" width="5" height="5"/>
		<rect x="32.3" y="32.2" style="&st2;" width="5" height="5"/>
		<rect x="37.3" y="32.2" style="&st2;" width="5" height="5"/>
		<rect x="42.3" y="32.2" style="&st2;" width="5" height="5"/>
		<rect x="47.3" y="32.2" style="&st2;" width="5" height="5"/>
		<rect x="52.3" y="32.2" style="&st2;" width="5" height="5"/>
		<rect x="57.3" y="32.2" style="&st2;" width="5" height="5"/>
		<rect x="62.3" y="32.2" style="&st2;" width="5" height="5"/>
		<rect x="67.3" y="32.2" style="&st2;" width="5" height="5"/>
		<rect x="72.3" y="32.2" style="&st2;" width="5" height="5"/>
		<rect x="77.3" y="32.2" style="&st2;" width="5" height="5"/>
		<rect x="82.3" y="32.2" style="&st2;" width="5" height="5"/>
		<rect x="87.3" y="32.2" style="&st2;" width="5" height="5"/>
		<rect x="92.3" y="32.2" style="&st2;" width="5" height="5"/>
		<rect x="97.3" y="32.2" style="&st2;" width="5" height="5"/>
		<rect x="102.3" y="32.2" style="&st2;" width="5" height="5"/>
		<rect x="12.3" y="37.2" style="&st2;" width="5" height="5"/>
		<rect x="17.3" y="37.2" style="&st2;" width="5" height="5"/>
		<rect x="22.3" y="37.2" style="&st2;" width="5" height="5"/>
		<rect x="27.3" y="37.2" style="&st2;" width="5" height="5"/>
		<rect x="32.3" y="37.2" style="&st2;" width="5" height="5"/>
		<rect x="37.3" y="37.2" style="&st2;" width="5" height="5"/>
		<rect x="42.3" y="37.2" style="&st2;" width="5" height="5"/>
		<rect x="47.3" y="37.2" style="&st2;" width="5" height="5"/>
		<rect x="52.3" y="37.2" style="&st2;" width="5" height="5"/>
		<rect x="57.3" y="37.2" style="&st2;" width="5" height="5"/>
		<rect x="62.3" y="37.2" style="&st2;" width="5" height="5"/>
		<rect x="67.3" y="37.2" style="&st2;" width="5" height="5"/>
		<rect x="72.3" y="37.2" style="&st2;" width="5" height="5"/>
		<rect x="77.3" y="37.2" style="&st2;" width="5" height="5"/>
		<rect x="82.3" y="37.2" style="&st2;" width="5" height="5"/>
		<rect x="87.3" y="37.2" style="&st2;" width="5" height="5"/>
		<rect x="92.3" y="37.2" style="&st2;" width="5" height="5"/>
		<rect x="97.3" y="37.2" style="&st2;" width="5" height="5"/>
		<rect x="102.3" y="37.2" style="&st2;" width="5" height="5"/>
		<rect x="12.3" y="42.2" style="&st2;" width="5" height="5"/>
		<rect x="17.3" y="42.2" style="&st2;" width="5" height="5"/>
		<rect x="22.3" y="42.2" style="&st2;" width="5" height="5"/>
		<rect x="27.3" y="42.2" style="&st2;" width="5" height="5"/>
		<rect x="32.3" y="42.2" style="&st2;" width="5" height="5"/>
		<rect x="37.3" y="42.2" style="&st2;" width="5" height="5"/>
		<rect x="42.3" y="42.2" style="&st2;" width="5" height="5"/>
		<rect x="47.3" y="42.2" style="&st2;" width="5" height="5"/>
		<rect x="52.3" y="42.2" style="&st2;" width="5" height="5"/>
		<rect x="57.3" y="42.2" style="&st2;" width="5" height="5"/>
		<rect x="62.3" y="42.2" style="&st2;" width="5" height="5"/>
		<rect x="67.3" y="42.2" style="&st2;" width="5" height="5"/>
		<rect x="72.3" y="42.2" style="&st2;" width="5" height="5"/>
		<rect x="77.3" y="42.2" style="&st2;" width="5" height="5"/>
		<rect x="82.3" y="42.2" style="&st2;" width="5" height="5"/>
		<rect x="87.3" y="42.2" style="&st2;" width="5" height="5"/>
		<rect x="92.3" y="42.2" style="&st2;" width="5" height="5"/>
		<rect x="97.3" y="42.2" style="&st2;" width="5" height="5"/>
		<rect x="102.3" y="42.2" style="&st2;" width="5" height="5"/>
		<rect x="12.3" y="47.2" style="&st2;" width="5" height="5"/>
		<rect x="17.3" y="47.2" style="&st2;" width="5" height="5"/>
		<rect x="22.3" y="47.2" style="&st2;" width="5" height="5"/>
		<rect x="27.3" y="47.2" style="&st2;" width="5" height="5"/>
		<rect x="32.3" y="47.2" style="&st2;" width="5" height="5"/>
		<rect x="37.3" y="47.2" style="&st2;" width="5" height="5"/>
		<rect x="42.3" y="47.2" style="&st2;" width="5" height="5"/>
		<rect x="47.3" y="47.2" style="&st2;" width="5" height="5"/>
		<rect x="52.3" y="47.2" style="&st2;" width="5" height="5"/>
		<rect x="57.3" y="47.2" style="&st2;" width="5" height="5"/>
		<rect x="62.3" y="47.2" style="&st2;" width="5" height="5"/>
		<rect x="67.3" y="47.2" style="&st2;" width="5" height="5"/>
		<rect x="72.3" y="47.2" style="&st2;" width="5" height="5"/>
		<rect x="77.3" y="47.2" style="&st2;" width="5" height="5"/>
		<rect x="82.3" y="47.2" style="&st2;" width="5" height="5"/>
		<rect x="87.3" y="47.2" style="&st2;" width="5" height="5"/>
		<rect x="92.3" y="47.2" style="&st2;" width="5" height="5"/>
		<rect x="97.3" y="47.2" style="&st2;" width="5" height="5"/>
		<rect x="102.3" y="47.2" style="&st2;" width="5" height="5"/>
		<rect x="12.3" y="52.2" style="&st2;" width="5" height="5"/>
		<rect x="17.3" y="52.2" style="&st2;" width="5" height="5"/>
		<rect x="22.3" y="52.2" style="&st2;" width="5" height="5"/>
		<rect x="27.3" y="52.2" style="&st2;" width="5" height="5"/>
		<rect x="32.3" y="52.2" style="&st2;" width="5" height="5"/>
		<rect x="37.3" y="52.2" style="&st2;" width="5" height="5"/>
		<rect x="42.3" y="52.2" style="&st2;" width="5" height="5"/>
		<rect x="47.3" y="52.2" style="&st2;" width="5" height="5"/>
		<rect x="52.3" y="52.2" style="&st2;" width="5" height="5"/>
		<rect x="57.3" y="52.2" style="&st2;" width="5" height="5"/>
		<rect x="62.3" y="52.2" style="&st2;" width="5" height="5"/>
		<rect x="67.3" y="52.2" style="&st2;" width="5" height="5"/>
		<rect x="72.3" y="52.2" style="&st2;" width="5" height="5"/>
		<rect x="77.3" y="52.2" style="&st2;" width="5" height="5"/>
		<rect x="82.3" y="52.2" style="&st2;" width="5" height="5"/>
		<rect x="87.3" y="52.2" style="&st2;" width="5" height="5"/>
		<rect x="92.3" y="52.2" style="&st2;" width="5" height="5"/>
		<rect x="97.3" y="52.2" style="&st2;" width="5" height="5"/>
		<rect x="102.3" y="52.2" style="&st2;" width="5" height="5"/>
		<rect x="12.3" y="57.2" style="&st2;" width="5" height="5"/>
		<rect x="17.3" y="57.2" style="&st2;" width="5" height="5"/>
		<rect x="22.3" y="57.2" style="&st2;" width="5" height="5"/>
		<rect x="27.3" y="57.2" style="&st2;" width="5" height="5"/>
		<rect x="32.3" y="57.2" style="&st2;" width="5" height="5"/>
		<rect x="37.3" y="57.2" style="&st2;" width="5" height="5"/>
		<rect x="42.3" y="57.2" style="&st2;" width="5" height="5"/>
		<rect x="47.3" y="57.2" style="&st2;" width="5" height="5"/>
		<rect x="52.3" y="57.2" style="&st2;" width="5" height="5"/>
		<rect x="57.3" y="57.2" style="&st2;" width="5" height="5"/>
		<rect x="62.3" y="57.2" style="&st2;" width="5" height="5"/>
		<rect x="67.3" y="57.2" style="&st2;" width="5" height="5"/>
		<rect x="72.3" y="57.2" style="&st2;" width="5" height="5"/>
		<rect x="77.3" y="57.2" style="&st2;" width="5" height="5"/>
		<rect x="82.3" y="57.2" style="&st2;" width="5" height="5"/>
		<rect x="87.3" y="57.2" style="&st2;" width="5" height="5"/>
		<rect x="92.3" y="57.2" style="&st2;" width="5" height="5"/>
		<rect x="97.3" y="57.2" style="&st2;" width="5" height="5"/>
		<rect x="102.3" y="57.2" style="&st2;" width="5" height="5"/>
		<rect x="12.3" y="62.2" style="&st2;" width="5" height="5"/>
		<rect x="17.3" y="62.2" style="&st2;" width="5" height="5"/>
		<rect x="22.3" y="62.2" style="&st2;" width="5" height="5"/>
		<rect x="27.3" y="62.2" style="&st2;" width="5" height="5"/>
		<rect x="32.3" y="62.2" style="&st2;" width="5" height="5"/>
		<rect x="37.3" y="62.2" style="&st2;" width="5" height="5"/>
		<rect x="42.3" y="62.2" style="&st2;" width="5" height="5"/>
		<rect x="47.3" y="62.2" style="&st2;" width="5" height="5"/>
		<rect x="52.3" y="62.2" style="&st2;" width="5" height="5"/>
		<rect x="57.3" y="62.2" style="&st2;" width="5" height="5"/>
		<rect x="62.3" y="62.2" style="&st2;" width="5" height="5"/>
		<rect x="67.3" y="62.2" style="&st2;" width="5" height="5"/>
		<rect x="72.3" y="62.2" style="&st2;" width="5" height="5"/>
		<rect x="77.3" y="62.2" style="&st2;" width="5" height="5"/>
		<rect x="82.3" y="62.2" style="&st2;" width="5" height="5"/>
		<rect x="87.3" y="62.2" style="&st2;" width="5" height="5"/>
		<rect x="92.3" y="62.2" style="&st2;" width="5" height="5"/>
		<rect x="97.3" y="62.2" style="&st2;" width="5" height="5"/>
		<rect x="102.3" y="62.2" style="&st2;" width="5" height="5"/>
		<rect x="12.3" y="67.2" style="&st2;" width="5" height="5"/>
		<rect x="17.3" y="67.2" style="&st2;" width="5" height="5"/>
		<rect x="22.3" y="67.2" style="&st2;" width="5" height="5"/>
		<rect x="27.3" y="67.2" style="&st2;" width="5" height="5"/>
		<rect x="32.3" y="67.2" style="&st2;" width="5" height="5"/>
		<rect x="37.3" y="67.2" style="&st2;" width="5" height="5"/>
		<rect x="42.3" y="67.2" style="&st2;" width="5" height="5"/>
		<rect x="47.3" y="67.2" style="&st2;" width="5" height="5"/>
		<rect x="52.3" y="67.2" style="&st2;" width="5" height="5"/>
		<rect x="57.3" y="67.2" style="&st2;" width="5" height="5"/>
		<rect x="62.3" y="67.2" style="&st2;" width="5" height="5"/>
		<rect x="67.3" y="67.2" style="&st2;" width="5" height="5"/>
		<rect x="72.3" y="67.2" style="&st2;" width="5" height="5"/>
		<rect x="77.3" y="67.2" style="&st2;" width="5" height="5"/>
		<rect x="82.3" y="67.2" style="&st2;" width="5" height="5"/>
		<rect x="87.3" y="67.2" style="&st2;" width="5" height="5"/>
		<rect x="92.3" y="67.2" style="&st2;" width="5" height="5"/>
		<rect x="97.3" y="67.2" style="&st2;" width="5" height="5"/>
		<rect x="102.3" y="67.2" style="&st2;" width="5" height="5"/>
		<rect x="12.3" y="72.2" style="&st2;" width="5" height="5"/>
		<rect x="17.3" y="72.2" style="&st2;" width="5" height="5"/>
		<rect x="22.3" y="72.2" style="&st2;" width="5" height="5"/>
		<rect x="27.3" y="72.2" style="&st2;" width="5" height="5"/>
		<rect x="32.3" y="72.2" style="&st2;" width="5" height="5"/>
		<rect x="37.3" y="72.2" style="&st2;" width="5" height="5"/>
		<rect x="42.3" y="72.2" style="&st2;" width="5" height="5"/>
		<rect x="47.3" y="72.2" style="&st2;" width="5" height="5"/>
		<rect x="52.3" y="72.2" style="&st2;" width="5" height="5"/>
		<rect x="57.3" y="72.2" style="&st2;" width="5" height="5"/>
		<rect x="62.3" y="72.2" style="&st2;" width="5" height="5"/>
		<rect x="67.3" y="72.2" style="&st2;" width="5" height="5"/>
		<rect x="72.3" y="72.2" style="&st2;" width="5" height="5"/>
		<rect x="77.3" y="72.2" style="&st2;" width="5" height="5"/>
		<rect x="82.3" y="72.2" style="&st2;" width="5" height="5"/>
		<rect x="87.3" y="72.2" style="&st2;" width="5" height="5"/>
		<rect x="92.3" y="72.2" style="&st2;" width="5" height="5"/>
		<rect x="97.3" y="72.2" style="&st2;" width="5" height="5"/>
		<rect x="102.3" y="72.2" style="&st2;" width="5" height="5"/>
		<rect x="12.3" y="77.2" style="&st2;" width="5" height="5"/>
		<rect x="17.3" y="77.2" style="&st2;" width="5" height="5"/>
		<rect x="22.3" y="77.2" style="&st2;" width="5" height="5"/>
		<rect x="27.3" y="77.2" style="&st2;" width="5" height="5"/>
		<rect x="32.3" y="77.2" style="&st2;" width="5" height="5"/>
		<rect x="37.3" y="77.2" style="&st2;" width="5" height="5"/>
		<rect x="42.3" y="77.2" style="&st2;" width="5" height="5"/>
		<rect x="47.3" y="77.2" style="&st2;" width="5" height="5"/>
		<rect x="52.3" y="77.2" style="&st2;" width="5" height="5"/>
		<rect x="57.3" y="77.2" style="&st2;" width="5" height="5"/>
		<rect x="62.3" y="77.2" style="&st2;" width="5" height="5"/>
		<rect x="67.3" y="77.2" style="&st2;" width="5" height="5"/>
		<rect x="72.3" y="77.2" style="&st2;" width="5" height="5"/>
		<rect x="77.3" y="77.2" style="&st2;" width="5" height="5"/>
		<rect x="82.3" y="77.2" style="&st2;" width="5" height="5"/>
		<rect x="87.3" y="77.2" style="&st2;" width="5" height="5"/>
		<rect x="92.3" y="77.2" style="&st2;" width="5" height="5"/>
		<rect x="97.3" y="77.2" style="&st2;" width="5" height="5"/>
		<rect x="102.3" y="77.2" style="&st2;" width="5" height="5"/>
		<rect x="12.3" y="82.2" style="&st2;" width="5" height="5"/>
		<rect x="17.3" y="82.2" style="&st2;" width="5" height="5"/>
		<rect x="22.3" y="82.2" style="&st2;" width="5" height="5"/>
		<rect x="27.3" y="82.2" style="&st2;" width="5" height="5"/>
		<rect x="32.3" y="82.2" style="&st2;" width="5" height="5"/>
		<rect x="37.3" y="82.2" style="&st2;" width="5" height="5"/>
		<rect x="42.3" y="82.2" style="&st2;" width="5" height="5"/>
		<rect x="47.3" y="82.2" style="&st2;" width="5" height="5"/>
		<rect x="52.3" y="82.2" style="&st2;" width="5" height="5"/>
		<rect x="57.3" y="82.2" style="&st2;" width="5" height="5"/>
		<rect x="62.3" y="82.2" style="&st2;" width="5" height="5"/>
		<rect x="67.3" y="82.2" style="&st2;" width="5" height="5"/>
		<rect x="72.3" y="82.2" style="&st2;" width="5" height="5"/>
		<rect x="77.3" y="82.2" style="&st2;" width="5" height="5"/>
		<rect x="82.3" y="82.2" style="&st2;" width="5" height="5"/>
		<rect x="87.3" y="82.2" style="&st2;" width="5" height="5"/>
		<rect x="92.3" y="82.2" style="&st2;" width="5" height="5"/>
		<rect x="97.3" y="82.2" style="&st2;" width="5" height="5"/>
		<rect x="102.3" y="82.2" style="&st2;" width="5" height="5"/>
		<rect x="12.3" y="87.2" style="&st2;" width="5" height="5"/>
		<rect x="17.3" y="87.2" style="&st2;" width="5" height="5"/>
		<rect x="22.3" y="87.2" style="&st2;" width="5" height="5"/>
		<rect x="27.3" y="87.2" style="&st2;" width="5" height="5"/>
		<rect x="32.3" y="87.2" style="&st2;" width="5" height="5"/>
		<rect x="37.3" y="87.2" style="&st2;" width="5" height="5"/>
		<rect x="42.3" y="87.2" style="&st2;" width="5" height="5"/>
		<rect x="47.3" y="87.2" style="&st2;" width="5" height="5"/>
		<rect x="52.3" y="87.2" style="&st2;" width="5" height="5"/>
		<rect x="57.3" y="87.2" style="&st2;" width="5" height="5"/>
		<rect x="62.3" y="87.2" style="&st2;" width="5" height="5"/>
		<rect x="67.3" y="87.2" style="&st2;" width="5" height="5"/>
		<rect x="72.3" y="87.2" style="&st2;" width="5" height="5"/>
		<rect x="77.3" y="87.2" style="&st2;" width="5" height="5"/>
		<rect x="82.3" y="87.2" style="&st2;" width="5" height="5"/>
		<rect x="87.3" y="87.2" style="&st2;" width="5" height="5"/>
		<rect x="92.3" y="87.2" style="&st2;" width="5" height="5"/>
		<rect x="97.3" y="87.2" style="&st2;" width="5" height="5"/>
		<rect x="102.3" y="87.2" style="&st2;" width="5" height="5"/>
		<rect x="12.3" y="92.2" style="&st2;" width="5" height="5"/>
		<rect x="17.3" y="92.2" style="&st2;" width="5" height="5"/>
		<rect x="22.3" y="92.2" style="&st2;" width="5" height="5"/>
		<rect x="27.3" y="92.2" style="&st2;" width="5" height="5"/>
		<rect x="32.3" y="92.2" style="&st2;" width="5" height="5"/>
		<rect x="37.3" y="92.2" style="&st2;" width="5" height="5"/>
		<rect x="42.3" y="92.2" style="&st2;" width="5" height="5"/>
		<rect x="47.3" y="92.2" style="&st2;" width="5" height="5"/>
		<rect x="52.3" y="92.2" style="&st2;" width="5" height="5"/>
		<rect x="57.3" y="92.2" style="&st2;" width="5" height="5"/>
		<rect x="62.3" y="92.2" style="&st2;" width="5" height="5"/>
		<rect x="67.3" y="92.2" style="&st2;" width="5" height="5"/>
		<rect x="72.3" y="92.2" style="&st2;" width="5" height="5"/>
		<rect x="77.3" y="92.2" style="&st2;" width="5" height="5"/>
		<rect x="82.3" y="92.2" style="&st2;" width="5" height="5"/>
		<rect x="87.3" y="92.2" style="&st2;" width="5" height="5"/>
		<rect x="92.3" y="92.2" style="&st2;" width="5" height="5"/>
		<rect x="97.3" y="92.2" style="&st2;" width="5" height="5"/>
		<rect x="102.3" y="92.2" style="&st2;" width="5" height="5"/>
		<rect x="12.3" y="97.2" style="&st2;" width="5" height="5"/>
		<rect x="17.3" y="97.2" style="&st2;" width="5" height="5"/>
		<rect x="22.3" y="97.2" style="&st2;" width="5" height="5"/>
		<rect x="27.3" y="97.2" style="&st2;" width="5" height="5"/>
		<rect x="32.3" y="97.2" style="&st2;" width="5" height="5"/>
		<rect x="37.3" y="97.2" style="&st2;" width="5" height="5"/>
		<rect x="42.3" y="97.2" style="&st2;" width="5" height="5"/>
		<rect x="47.3" y="97.2" style="&st2;" width="5" height="5"/>
		<rect x="52.3" y="97.2" style="&st2;" width="5" height="5"/>
		<rect x="57.3" y="97.2" style="&st2;" width="5" height="5"/>
		<rect x="62.3" y="97.2" style="&st2;" width="5" height="5"/>
		<rect x="67.3" y="97.2" style="&st2;" width="5" height="5"/>
		<rect x="72.3" y="97.2" style="&st2;" width="5" height="5"/>
		<rect x="77.3" y="97.2" style="&st2;" width="5" height="5"/>
		<rect x="82.3" y="97.2" style="&st2;" width="5" height="5"/>
		<rect x="87.3" y="97.2" style="&st2;" width="5" height="5"/>
		<rect x="92.3" y="97.2" style="&st2;" width="5" height="5"/>
		<rect x="97.3" y="97.2" style="&st2;" width="5" height="5"/>
		<rect x="102.3" y="97.2" style="&st2;" width="5" height="5"/>
		<rect x="12.3" y="102.2" style="&st2;" width="5" height="5"/>
		<rect x="17.3" y="102.2" style="&st2;" width="5" height="5"/>
		<rect x="22.3" y="102.2" style="&st2;" width="5" height="5"/>
		<rect x="27.3" y="102.2" style="&st2;" width="5" height="5"/>
		<rect x="32.3" y="102.2" style="&st2;" width="5" height="5"/>
		<rect x="37.3" y="102.2" style="&st2;" width="5" height="5"/>
		<rect x="42.3" y="102.2" style="&st2;" width="5" height="5"/>
		<rect x="47.3" y="102.2" style="&st2;" width="5" height="5"/>
		<rect x="52.3" y="102.2" style="&st2;" width="5" height="5"/>
		<rect x="57.3" y="102.2" style="&st2;" width="5" height="5"/>
		<rect x="62.3" y="102.2" style="&st2;" width="5" height="5"/>
		<rect x="67.3" y="102.2" style="&st2;" width="5" height="5"/>
		<rect x="72.3" y="102.2" style="&st2;" width="5" height="5"/>
		<rect x="77.3" y="102.2" style="&st2;" width="5" height="5"/>
		<rect x="82.3" y="102.2" style="&st2;" width="5" height="5"/>
		<rect x="87.3" y="102.2" style="&st2;" width="5" height="5"/>
		<rect x="92.3" y="102.2" style="&st2;" width="5" height="5"/>
		<rect x="97.3" y="102.2" style="&st2;" width="5" height="5"/>
		<rect x="102.3" y="102.2" style="&st2;" width="5" height="5"/>
	</g>
</g>
<g id="Public_Cloud_2color-light_bk">
	<path style="&st3;" d="M72.5,32.1c0.1,0,0.3,0,0.4,0c9.1,0.2,16.6,8,17.6,18.1l0.2,2.1l2.1,0.2c6.3,0.6,11.1,7,10.9,14.7
		c-0.2,7.8-5.6,14.1-12,14.1c-0.1,0-0.2,0-0.3,0c-0.2,0-0.8,0-1.7,0c-4.6,0-18,0-31.1,0.1c-13.1,0-26.7,0.1-31.3,0.1
		c-0.9,0-1.4,0-1.6,0c-6.4-0.2-12.3-6.2-12.1-12.4c0.1-6.2,5.3-11.2,11.4-11.2c0.1,0,0.2,0,0.3,0c1,0,1.9,0.2,2.8,0.4l2.6,0.7
		l0.6-2.6c1.5-6.9,7.7-12,14.7-12c0.1,0,0.2,0,0.4,0c2.2,0.1,4.2,0.5,6.1,1.4l2.4,1.2l1-2.5C58.7,37,65.3,32.1,72.5,32.1 M72.5,29.6
		c-8.5,0-15.8,5.7-19,13.9c-2.2-1-4.5-1.6-7.1-1.7c-0.1,0-0.3,0-0.4,0c-8.4,0-15.4,5.9-17.1,14c-1.1-0.3-2.3-0.5-3.4-0.5
		c-0.1,0-0.2,0-0.3,0c-7.5,0-13.7,6.1-13.9,13.7c-0.2,7.7,6.9,14.8,14.5,15c0.2,0,0.8,0,1.6,0c9.3,0,53.2-0.2,62.4-0.2
		c0.9,0,1.4,0,1.6,0c0.1,0,0.2,0,0.3,0c7.8,0,14.3-7.4,14.5-16.5c0.2-9-5.6-16.5-13.2-17.2c-1-11.2-9.5-20.1-20-20.4
		C72.9,29.6,72.7,29.6,72.5,29.6L72.5,29.6z"/>
</g>
</svg>
